G04 #@! TF.GenerationSoftware,KiCad,Pcbnew,8.0.6*
G04 #@! TF.CreationDate,2024-12-27T23:38:28+01:00*
G04 #@! TF.ProjectId,koyomi-lvds-hat,6b6f796f-6d69-42d6-9c76-64732d686174,rev?*
G04 #@! TF.SameCoordinates,Original*
G04 #@! TF.FileFunction,Paste,Top*
G04 #@! TF.FilePolarity,Positive*
%FSLAX46Y46*%
G04 Gerber Fmt 4.6, Leading zero omitted, Abs format (unit mm)*
G04 Created by KiCad (PCBNEW 8.0.6) date 2024-12-27 23:38:28*
%MOMM*%
%LPD*%
G01*
G04 APERTURE LIST*
G04 Aperture macros list*
%AMRoundRect*
0 Rectangle with rounded corners*
0 $1 Rounding radius*
0 $2 $3 $4 $5 $6 $7 $8 $9 X,Y pos of 4 corners*
0 Add a 4 corners polygon primitive as box body*
4,1,4,$2,$3,$4,$5,$6,$7,$8,$9,$2,$3,0*
0 Add four circle primitives for the rounded corners*
1,1,$1+$1,$2,$3*
1,1,$1+$1,$4,$5*
1,1,$1+$1,$6,$7*
1,1,$1+$1,$8,$9*
0 Add four rect primitives between the rounded corners*
20,1,$1+$1,$2,$3,$4,$5,0*
20,1,$1+$1,$4,$5,$6,$7,0*
20,1,$1+$1,$6,$7,$8,$9,0*
20,1,$1+$1,$8,$9,$2,$3,0*%
G04 Aperture macros list end*
%ADD10RoundRect,0.237500X0.300000X0.237500X-0.300000X0.237500X-0.300000X-0.237500X0.300000X-0.237500X0*%
%ADD11R,0.250000X0.550000*%
%ADD12RoundRect,0.237500X0.237500X-0.300000X0.237500X0.300000X-0.237500X0.300000X-0.237500X-0.300000X0*%
%ADD13R,0.200000X1.200000*%
%ADD14R,1.400000X2.000000*%
%ADD15RoundRect,0.237500X-0.237500X0.300000X-0.237500X-0.300000X0.237500X-0.300000X0.237500X0.300000X0*%
%ADD16RoundRect,0.375000X-0.375000X0.625000X-0.375000X-0.625000X0.375000X-0.625000X0.375000X0.625000X0*%
%ADD17RoundRect,0.500000X-1.400000X0.500000X-1.400000X-0.500000X1.400000X-0.500000X1.400000X0.500000X0*%
%ADD18RoundRect,0.009000X-0.141000X0.491000X-0.141000X-0.491000X0.141000X-0.491000X0.141000X0.491000X0*%
%ADD19RoundRect,0.237500X-0.237500X0.250000X-0.237500X-0.250000X0.237500X-0.250000X0.237500X0.250000X0*%
%ADD20RoundRect,0.150000X0.625000X-0.150000X0.625000X0.150000X-0.625000X0.150000X-0.625000X-0.150000X0*%
%ADD21RoundRect,0.250000X0.650000X-0.350000X0.650000X0.350000X-0.650000X0.350000X-0.650000X-0.350000X0*%
G04 APERTURE END LIST*
D10*
X114120000Y-49400000D03*
X112395000Y-49400000D03*
D11*
X127899800Y-66750000D03*
X127899800Y-67700000D03*
X128400000Y-66750000D03*
X128400000Y-67700000D03*
X128899800Y-66750000D03*
X128899800Y-67700000D03*
X129400000Y-66750000D03*
X129400000Y-67700000D03*
D12*
X112700000Y-65562500D03*
X112700000Y-63837500D03*
D13*
X117700000Y-71130000D03*
X118100000Y-71130000D03*
X118500000Y-71130000D03*
X118900000Y-71130000D03*
X119300000Y-71130000D03*
X119700000Y-71130000D03*
X120100000Y-71130000D03*
X120500000Y-71130000D03*
X120900000Y-71130000D03*
X121300000Y-71130000D03*
X121700000Y-71130000D03*
X122100000Y-71130000D03*
X122500000Y-71130000D03*
X122900000Y-71130000D03*
X123300000Y-71130000D03*
X123700000Y-71130000D03*
X124100000Y-71130000D03*
X124500000Y-71130000D03*
X124900000Y-71130000D03*
X125300000Y-71130000D03*
X125700000Y-71130000D03*
X126100000Y-71130000D03*
X126500000Y-71130000D03*
X126900000Y-71130000D03*
X127300000Y-71130000D03*
X127700000Y-71130000D03*
X128100000Y-71130000D03*
X128500000Y-71130000D03*
X128900000Y-71130000D03*
X129300000Y-71130000D03*
D14*
X115200000Y-72500000D03*
X131800000Y-72500000D03*
D12*
X115800000Y-65562500D03*
X115800000Y-63837500D03*
D10*
X114100000Y-52300000D03*
X112375000Y-52300000D03*
D15*
X101600000Y-61037500D03*
X101600000Y-62762500D03*
D16*
X109080000Y-61030000D03*
X106780000Y-61030000D03*
D17*
X106780000Y-67330000D03*
D16*
X104480000Y-61030000D03*
D11*
X125199800Y-66700000D03*
X125199800Y-67650000D03*
X125700000Y-66700000D03*
X125700000Y-67650000D03*
X126199800Y-66700000D03*
X126199800Y-67650000D03*
X126700000Y-66700000D03*
X126700000Y-67650000D03*
D18*
X130250000Y-46400000D03*
X129750000Y-46400000D03*
X129250000Y-46400000D03*
X128750000Y-46400000D03*
X128250000Y-46400000D03*
X127750000Y-46400000D03*
X127250000Y-46400000D03*
X126750000Y-46400000D03*
X126250000Y-46400000D03*
X125750000Y-46400000D03*
X125250000Y-46400000D03*
X124750000Y-46400000D03*
X124250000Y-46400000D03*
X123750000Y-46400000D03*
X123250000Y-46400000D03*
X122750000Y-46400000D03*
X122250000Y-46400000D03*
X121750000Y-46400000D03*
X121250000Y-46400000D03*
X120750000Y-46400000D03*
X120250000Y-46400000D03*
X119750000Y-46400000D03*
X119250000Y-46400000D03*
X118750000Y-46400000D03*
X118250000Y-46400000D03*
X117750000Y-46400000D03*
X117250000Y-46400000D03*
X116750000Y-46400000D03*
X116750000Y-53660000D03*
X117250000Y-53660000D03*
X117750000Y-53660000D03*
X118250000Y-53660000D03*
X118750000Y-53660000D03*
X119250000Y-53660000D03*
X119750000Y-53660000D03*
X120250000Y-53660000D03*
X120750000Y-53660000D03*
X121250000Y-53660000D03*
X121750000Y-53660000D03*
X122250000Y-53660000D03*
X122750000Y-53660000D03*
X123250000Y-53660000D03*
X123750000Y-53660000D03*
X124250000Y-53660000D03*
X124750000Y-53660000D03*
X125250000Y-53660000D03*
X125750000Y-53660000D03*
X126250000Y-53660000D03*
X126750000Y-53660000D03*
X127250000Y-53660000D03*
X127750000Y-53660000D03*
X128250000Y-53660000D03*
X128750000Y-53660000D03*
X129250000Y-53660000D03*
X129750000Y-53660000D03*
X130250000Y-53660000D03*
D10*
X106800000Y-70400000D03*
X105075000Y-70400000D03*
X114120000Y-46470000D03*
X112395000Y-46470000D03*
D19*
X100500000Y-47987500D03*
X100500000Y-49812500D03*
D20*
X150795000Y-40760000D03*
X150795000Y-39760000D03*
X150795000Y-38760000D03*
X150795000Y-37760000D03*
D21*
X154670000Y-42060000D03*
X154670000Y-36460000D03*
D12*
X118900000Y-65562500D03*
X118900000Y-63837500D03*
D19*
X106500000Y-47987500D03*
X106500000Y-49812500D03*
M02*
