M48
; DRILL file {KiCad 8.0.4} date 2024-08-03T17:02:24+0200
; FORMAT={-:-/ absolute / metric / decimal}
; #@! TF.CreationDate,2024-08-03T17:02:24+02:00
; #@! TF.GenerationSoftware,Kicad,Pcbnew,8.0.4
; #@! TF.FileFunction,Plated,1,2,PTH
FMAT,2
METRIC
; #@! TA.AperFunction,Plated,PTH,ViaDrill
T1C0.400
; #@! TA.AperFunction,Plated,PTH,ComponentDrill
T2C1.000
%
G90
G05
T1
X96.9Y-31.1
X99.35Y-30.1
X100.5Y-51.05
X101.6Y-64.4
X103.4Y-70.4
X103.5Y-53.5
X105.9Y-25.9
X109.1Y-58.9
X109.5Y-30.7
X110.89Y-49.4
X110.9Y-46.5
X112.35Y-36.55
X112.7Y-62.2
X113.3Y-39.6
X113.4Y-72.5
X115.6Y-45.2
X115.7Y-44.2
X115.8Y-62.2
X115.9Y-28.7
X116.0Y-25.4
X116.4Y-52.0
X116.8Y-55.2
X116.8Y-56.2
X117.69Y-52.0
X117.9Y-73.8
X118.2Y-48.6
X118.4Y-24.7
X118.9Y-62.2
X119.3Y-48.6
X119.7Y-30.6
X120.11Y-55.7
X120.5Y-48.6
X120.5Y-50.1
X120.5Y-63.8
X120.6Y-72.92
X120.81Y-74.8
X121.0Y-24.7
X121.0Y-58.2
X121.1Y-44.1
X121.3Y-67.9
X121.9Y-43.3
X122.01Y-52.52
X122.05Y-68.6
X122.22Y-60.96
X122.5Y-42.5
X123.25Y-41.65
X123.45Y-67.3
X123.5Y-28.7
X123.6Y-23.3
X124.0Y-56.0
X124.04Y-63.2
X124.063Y-40.837
X124.2Y-51.2
X124.25Y-34.2
X124.41Y-65.53
X125.2Y-50.2
X125.3Y-34.2
X125.8Y-23.2
X126.2Y-49.2
X126.4Y-34.2
X126.9Y-52.0
X127.0Y-72.715
X127.3Y-32.0
X127.85Y-50.35
X127.88Y-55.9
X128.1Y-41.9
X128.1Y-43.8
X128.3Y-47.6
X128.85Y-36.7
X128.9Y-35.7
X129.1Y-34.7
X129.1Y-41.85
X129.1Y-43.8
X129.7Y-73.3
X130.58Y-69.93
X130.6Y-57.25
X130.9Y-50.8
X130.9Y-59.6
X130.9Y-62.4
X131.0Y-64.8
X131.0Y-67.6
X131.1Y-35.05
X131.1Y-37.2
X132.4Y-34.75
X132.425Y-37.025
X132.7Y-38.0
X132.7Y-39.0
X133.9Y-44.65
X134.9Y-43.65
X135.667Y-44.967
X135.8Y-41.3
X136.75Y-35.0
X136.75Y-40.95
X136.8Y-33.9
X137.6Y-35.9
X138.45Y-37.4
X138.55Y-45.2
X139.15Y-35.9
X139.3Y-39.25
X140.4Y-26.0
X140.9Y-36.35
X140.9Y-37.35
X144.3Y-33.95
X146.2Y-28.7
X146.6Y-23.3
X150.3Y-42.17
X150.4Y-58.8
X154.7Y-34.7
X154.7Y-38.1
X154.7Y-40.5
X155.5Y-43.6
X155.51Y-56.49
T2
X101.94Y-75.88
X104.48Y-75.88
X107.02Y-75.88
X109.56Y-75.88
X112.1Y-75.88
X137.94Y-51.76
X137.94Y-54.3
X137.94Y-56.84
X137.94Y-59.38
X137.94Y-61.92
X137.94Y-64.46
X140.62Y-46.8
X140.62Y-69.7
X143.16Y-46.8
X143.16Y-69.7
X145.7Y-46.8
X145.7Y-69.7
X147.125Y-31.285
X147.125Y-33.825
X147.125Y-36.365
X147.125Y-38.905
X147.125Y-41.445
X147.125Y-43.985
X148.24Y-46.8
X148.24Y-69.7
X150.78Y-46.8
X150.78Y-69.7
X153.32Y-46.8
X153.32Y-69.7
M30
