G04 #@! TF.GenerationSoftware,KiCad,Pcbnew,8.0.6*
G04 #@! TF.CreationDate,2024-12-27T23:38:28+01:00*
G04 #@! TF.ProjectId,koyomi-lvds-hat,6b6f796f-6d69-42d6-9c76-64732d686174,rev?*
G04 #@! TF.SameCoordinates,Original*
G04 #@! TF.FileFunction,Soldermask,Bot*
G04 #@! TF.FilePolarity,Negative*
%FSLAX46Y46*%
G04 Gerber Fmt 4.6, Leading zero omitted, Abs format (unit mm)*
G04 Created by KiCad (PCBNEW 8.0.6) date 2024-12-27 23:38:28*
%MOMM*%
%LPD*%
G01*
G04 APERTURE LIST*
%ADD10C,6.200000*%
%ADD11R,1.700000X1.700000*%
%ADD12O,1.700000X1.700000*%
%ADD13R,0.500000X0.800000*%
%ADD14R,0.400000X0.800000*%
%ADD15C,0.965200*%
%ADD16C,1.778000*%
%ADD17R,0.889000X1.676400*%
G04 APERTURE END LIST*
D10*
X152500000Y-26000000D03*
X152500000Y-75000000D03*
D11*
X101940000Y-75880000D03*
D12*
X104480000Y-75880000D03*
X107020000Y-75880000D03*
X109560000Y-75880000D03*
X112100000Y-75880000D03*
D11*
X137940000Y-51760000D03*
D12*
X137940000Y-54300000D03*
X137940000Y-56840000D03*
X137940000Y-59380000D03*
X137940000Y-61920000D03*
X137940000Y-64460000D03*
D11*
X153320000Y-69700000D03*
D12*
X150780000Y-69700000D03*
X148240000Y-69700000D03*
X145700000Y-69700000D03*
X143160000Y-69700000D03*
X140620000Y-69700000D03*
D11*
X147125000Y-31285000D03*
D12*
X147125000Y-33825000D03*
X147125000Y-36365000D03*
X147125000Y-38905000D03*
X147125000Y-41445000D03*
X147125000Y-43985000D03*
D11*
X153320000Y-46800000D03*
D12*
X150780000Y-46800000D03*
X148240000Y-46800000D03*
X145700000Y-46800000D03*
X143160000Y-46800000D03*
X140620000Y-46800000D03*
D10*
X94500000Y-26000000D03*
X94500000Y-75000000D03*
D13*
X106050000Y-34500000D03*
D14*
X105250000Y-34500000D03*
X104450000Y-34500000D03*
D13*
X103650000Y-34500000D03*
X103650000Y-32700000D03*
D14*
X104450000Y-32700000D03*
X105250000Y-32700000D03*
D13*
X106050000Y-32700000D03*
X141700000Y-33450000D03*
D14*
X140900000Y-33450000D03*
X140100000Y-33450000D03*
D13*
X139300000Y-33450000D03*
X139300000Y-31650000D03*
D14*
X140100000Y-31650000D03*
X140900000Y-31650000D03*
D13*
X141700000Y-31650000D03*
D15*
X99370000Y-27270000D03*
X101910000Y-27270000D03*
X104450000Y-27270000D03*
X106990000Y-27270000D03*
X109530000Y-27270000D03*
X112070000Y-27270000D03*
X114610000Y-27270000D03*
X117150000Y-27270000D03*
X119690000Y-27270000D03*
X122230000Y-27270000D03*
X124770000Y-27270000D03*
X127310000Y-27270000D03*
X129850000Y-27270000D03*
X132390000Y-27270000D03*
X134930000Y-27270000D03*
X137470000Y-27270000D03*
X140010000Y-27270000D03*
X142550000Y-27270000D03*
X145090000Y-27270000D03*
X147630000Y-27270000D03*
D16*
X100640000Y-26000000D03*
X146360000Y-26000000D03*
D15*
X99370000Y-24730000D03*
X101910000Y-24730000D03*
X104450000Y-24730000D03*
X106990000Y-24730000D03*
X109530000Y-24730000D03*
X112070000Y-24730000D03*
X114610000Y-24730000D03*
X117150000Y-24730000D03*
X119690000Y-24730000D03*
X122230000Y-24730000D03*
X124770000Y-24730000D03*
X127310000Y-24730000D03*
X129850000Y-24730000D03*
X132390000Y-24730000D03*
X134930000Y-24730000D03*
X137470000Y-24730000D03*
X140010000Y-24730000D03*
X142550000Y-24730000D03*
X145090000Y-24730000D03*
X147630000Y-24730000D03*
D17*
X99370000Y-28720000D03*
X99370000Y-23280400D03*
X101910000Y-28720000D03*
X101910000Y-23280400D03*
X104450000Y-28720000D03*
X104450000Y-23280400D03*
X106990000Y-28720000D03*
X106990000Y-23280400D03*
X109530000Y-28720000D03*
X109530000Y-23280400D03*
X112070000Y-28720000D03*
X112070000Y-23280400D03*
X114610000Y-28720000D03*
X114610000Y-23280400D03*
X117150000Y-28720000D03*
X117150000Y-23280400D03*
X119690000Y-28720000D03*
X119690000Y-23280400D03*
X122230000Y-28720000D03*
X122230000Y-23280400D03*
X124770000Y-28720000D03*
X124770000Y-23280400D03*
X127310000Y-28720000D03*
X127310000Y-23280400D03*
X129850000Y-28720000D03*
X129850000Y-23280400D03*
X132390000Y-28720000D03*
X132390000Y-23280400D03*
X134930000Y-28720000D03*
X134930000Y-23280400D03*
X137470000Y-28720000D03*
X137470000Y-23280400D03*
X140010000Y-28720000D03*
X140010000Y-23280400D03*
X142550000Y-28720000D03*
X142550000Y-23280400D03*
X145090000Y-28720000D03*
X145090000Y-23280400D03*
X147630000Y-28720000D03*
X147630000Y-23280400D03*
D13*
X133200000Y-33000000D03*
D14*
X132400000Y-33000000D03*
X131600000Y-33000000D03*
D13*
X130800000Y-33000000D03*
X130800000Y-31200000D03*
D14*
X131600000Y-31200000D03*
X132400000Y-31200000D03*
D13*
X133200000Y-31200000D03*
X114800000Y-34500000D03*
D14*
X114000000Y-34500000D03*
X113200000Y-34500000D03*
D13*
X112400000Y-34500000D03*
X112400000Y-32700000D03*
D14*
X113200000Y-32700000D03*
X114000000Y-32700000D03*
D13*
X114800000Y-32700000D03*
X143600000Y-43150000D03*
D14*
X142800000Y-43150000D03*
X142000000Y-43150000D03*
D13*
X141200000Y-43150000D03*
X141200000Y-41350000D03*
D14*
X142000000Y-41350000D03*
X142800000Y-41350000D03*
D13*
X143600000Y-41350000D03*
X126400000Y-33000000D03*
D14*
X125600000Y-33000000D03*
X124800000Y-33000000D03*
D13*
X124000000Y-33000000D03*
X124000000Y-31200000D03*
D14*
X124800000Y-31200000D03*
X125600000Y-31200000D03*
D13*
X126400000Y-31200000D03*
M02*
