G04 #@! TF.GenerationSoftware,KiCad,Pcbnew,8.0.4*
G04 #@! TF.CreationDate,2024-07-21T23:04:51+02:00*
G04 #@! TF.ProjectId,koyomi-lvds-hat,6b6f796f-6d69-42d6-9c76-64732d686174,rev?*
G04 #@! TF.SameCoordinates,Original*
G04 #@! TF.FileFunction,Paste,Bot*
G04 #@! TF.FilePolarity,Positive*
%FSLAX46Y46*%
G04 Gerber Fmt 4.6, Leading zero omitted, Abs format (unit mm)*
G04 Created by KiCad (PCBNEW 8.0.4) date 2024-07-21 23:04:51*
%MOMM*%
%LPD*%
G01*
G04 APERTURE LIST*
%ADD10R,0.889000X1.676400*%
%ADD11R,0.500000X0.800000*%
%ADD12R,0.400000X0.800000*%
G04 APERTURE END LIST*
D10*
X99370000Y-28717800D03*
X99370000Y-23282200D03*
X101910000Y-28717800D03*
X101910000Y-23282200D03*
X104450000Y-28717800D03*
X104450000Y-23282200D03*
X106990000Y-28717800D03*
X106990000Y-23282200D03*
X109530000Y-28717800D03*
X109530000Y-23282200D03*
X112070000Y-28717800D03*
X112070000Y-23282200D03*
X114610000Y-28717800D03*
X114610000Y-23282200D03*
X117150000Y-28717800D03*
X117150000Y-23282200D03*
X119690000Y-28717800D03*
X119690000Y-23282200D03*
X122230000Y-28717800D03*
X122230000Y-23282200D03*
X124770000Y-28717800D03*
X124770000Y-23282200D03*
X127310000Y-28717800D03*
X127310000Y-23282200D03*
X129850000Y-28717800D03*
X129850000Y-23282200D03*
X132390000Y-28717800D03*
X132390000Y-23282200D03*
X134930000Y-28717800D03*
X134930000Y-23282200D03*
X137470000Y-28717800D03*
X137470000Y-23282200D03*
X140010000Y-28717800D03*
X140010000Y-23282200D03*
X142550000Y-28717800D03*
X142550000Y-23282200D03*
X145090000Y-28717800D03*
X145090000Y-23282200D03*
X147630000Y-28717800D03*
X147630000Y-23282200D03*
D11*
X106050000Y-34500000D03*
D12*
X105250000Y-34500000D03*
X104450000Y-34500000D03*
D11*
X103650000Y-34500000D03*
X103650000Y-32700000D03*
D12*
X104450000Y-32700000D03*
X105250000Y-32700000D03*
D11*
X106050000Y-32700000D03*
X141700000Y-33450000D03*
D12*
X140900000Y-33450000D03*
X140100000Y-33450000D03*
D11*
X139300000Y-33450000D03*
X139300000Y-31650000D03*
D12*
X140100000Y-31650000D03*
X140900000Y-31650000D03*
D11*
X141700000Y-31650000D03*
X133200000Y-33000000D03*
D12*
X132400000Y-33000000D03*
X131600000Y-33000000D03*
D11*
X130800000Y-33000000D03*
X130800000Y-31200000D03*
D12*
X131600000Y-31200000D03*
X132400000Y-31200000D03*
D11*
X133200000Y-31200000D03*
X114800000Y-34500000D03*
D12*
X114000000Y-34500000D03*
X113200000Y-34500000D03*
D11*
X112400000Y-34500000D03*
X112400000Y-32700000D03*
D12*
X113200000Y-32700000D03*
X114000000Y-32700000D03*
D11*
X114800000Y-32700000D03*
X143600000Y-43150000D03*
D12*
X142800000Y-43150000D03*
X142000000Y-43150000D03*
D11*
X141200000Y-43150000D03*
X141200000Y-41350000D03*
D12*
X142000000Y-41350000D03*
X142800000Y-41350000D03*
D11*
X143600000Y-41350000D03*
X126400000Y-33000000D03*
D12*
X125600000Y-33000000D03*
X124800000Y-33000000D03*
D11*
X124000000Y-33000000D03*
X124000000Y-31200000D03*
D12*
X124800000Y-31200000D03*
X125600000Y-31200000D03*
D11*
X126400000Y-31200000D03*
M02*
