M48
; DRILL file {KiCad 8.0.4} date 2024-08-03T17:02:24+0200
; FORMAT={-:-/ absolute / metric / decimal}
; #@! TF.CreationDate,2024-08-03T17:02:24+02:00
; #@! TF.GenerationSoftware,Kicad,Pcbnew,8.0.4
; #@! TF.FileFunction,NonPlated,1,2,NPTH
FMAT,2
METRIC
; #@! TA.AperFunction,NonPlated,NPTH,ComponentDrill
T1C0.965
; #@! TA.AperFunction,NonPlated,NPTH,ComponentDrill
T2C1.778
; #@! TA.AperFunction,NonPlated,NPTH,ComponentDrill
T3C2.750
%
G90
G05
T1
X99.37Y-24.73
X99.37Y-27.27
X101.91Y-24.73
X101.91Y-27.27
X104.45Y-24.73
X104.45Y-27.27
X106.99Y-24.73
X106.99Y-27.27
X109.53Y-24.73
X109.53Y-27.27
X112.07Y-24.73
X112.07Y-27.27
X114.61Y-24.73
X114.61Y-27.27
X117.15Y-24.73
X117.15Y-27.27
X119.69Y-24.73
X119.69Y-27.27
X122.23Y-24.73
X122.23Y-27.27
X124.77Y-24.73
X124.77Y-27.27
X127.31Y-24.73
X127.31Y-27.27
X129.85Y-24.73
X129.85Y-27.27
X132.39Y-24.73
X132.39Y-27.27
X134.93Y-24.73
X134.93Y-27.27
X137.47Y-24.73
X137.47Y-27.27
X140.01Y-24.73
X140.01Y-27.27
X142.55Y-24.73
X142.55Y-27.27
X145.09Y-24.73
X145.09Y-27.27
X147.63Y-24.73
X147.63Y-27.27
T2
X100.64Y-26.0
X146.36Y-26.0
T3
X94.5Y-26.0
X94.5Y-75.0
X152.5Y-26.0
X152.5Y-75.0
M30
