G04 #@! TF.GenerationSoftware,KiCad,Pcbnew,8.0.4*
G04 #@! TF.CreationDate,2024-07-21T23:04:51+02:00*
G04 #@! TF.ProjectId,koyomi-lvds-hat,6b6f796f-6d69-42d6-9c76-64732d686174,rev?*
G04 #@! TF.SameCoordinates,Original*
G04 #@! TF.FileFunction,Legend,Top*
G04 #@! TF.FilePolarity,Positive*
%FSLAX46Y46*%
G04 Gerber Fmt 4.6, Leading zero omitted, Abs format (unit mm)*
G04 Created by KiCad (PCBNEW 8.0.4) date 2024-07-21 23:04:51*
%MOMM*%
%LPD*%
G01*
G04 APERTURE LIST*
G04 Aperture macros list*
%AMRoundRect*
0 Rectangle with rounded corners*
0 $1 Rounding radius*
0 $2 $3 $4 $5 $6 $7 $8 $9 X,Y pos of 4 corners*
0 Add a 4 corners polygon primitive as box body*
4,1,4,$2,$3,$4,$5,$6,$7,$8,$9,$2,$3,0*
0 Add four circle primitives for the rounded corners*
1,1,$1+$1,$2,$3*
1,1,$1+$1,$4,$5*
1,1,$1+$1,$6,$7*
1,1,$1+$1,$8,$9*
0 Add four rect primitives between the rounded corners*
20,1,$1+$1,$2,$3,$4,$5,0*
20,1,$1+$1,$4,$5,$6,$7,0*
20,1,$1+$1,$6,$7,$8,$9,0*
20,1,$1+$1,$8,$9,$2,$3,0*%
%AMFreePoly0*
4,1,19,0.500000,-0.750000,0.000000,-0.750000,0.000000,-0.744911,-0.071157,-0.744911,-0.207708,-0.704816,-0.327430,-0.627875,-0.420627,-0.520320,-0.479746,-0.390866,-0.500000,-0.250000,-0.500000,0.250000,-0.479746,0.390866,-0.420627,0.520320,-0.327430,0.627875,-0.207708,0.704816,-0.071157,0.744911,0.000000,0.744911,0.000000,0.750000,0.500000,0.750000,0.500000,-0.750000,0.500000,-0.750000,
$1*%
%AMFreePoly1*
4,1,19,0.000000,0.744911,0.071157,0.744911,0.207708,0.704816,0.327430,0.627875,0.420627,0.520320,0.479746,0.390866,0.500000,0.250000,0.500000,-0.250000,0.479746,-0.390866,0.420627,-0.520320,0.327430,-0.627875,0.207708,-0.704816,0.071157,-0.744911,0.000000,-0.744911,0.000000,-0.750000,-0.500000,-0.750000,-0.500000,0.750000,0.000000,0.750000,0.000000,0.744911,0.000000,0.744911,
$1*%
G04 Aperture macros list end*
%ADD10C,0.150000*%
%ADD11C,0.200000*%
%ADD12C,0.120000*%
%ADD13C,0.127000*%
%ADD14RoundRect,0.237500X0.300000X0.237500X-0.300000X0.237500X-0.300000X-0.237500X0.300000X-0.237500X0*%
%ADD15RoundRect,0.237500X0.237500X-0.300000X0.237500X0.300000X-0.237500X0.300000X-0.237500X-0.300000X0*%
%ADD16C,6.200000*%
%ADD17FreePoly0,270.000000*%
%ADD18FreePoly1,270.000000*%
%ADD19R,0.200000X1.200000*%
%ADD20R,1.400000X2.000000*%
%ADD21R,1.700000X1.700000*%
%ADD22O,1.700000X1.700000*%
%ADD23RoundRect,0.237500X-0.237500X0.300000X-0.237500X-0.300000X0.237500X-0.300000X0.237500X0.300000X0*%
%ADD24RoundRect,0.375000X-0.375000X0.625000X-0.375000X-0.625000X0.375000X-0.625000X0.375000X0.625000X0*%
%ADD25RoundRect,0.500000X-1.400000X0.500000X-1.400000X-0.500000X1.400000X-0.500000X1.400000X0.500000X0*%
%ADD26C,0.965200*%
%ADD27C,1.778000*%
%ADD28RoundRect,0.009000X-0.141000X0.491000X-0.141000X-0.491000X0.141000X-0.491000X0.141000X0.491000X0*%
%ADD29RoundRect,0.237500X-0.237500X0.250000X-0.237500X-0.250000X0.237500X-0.250000X0.237500X0.250000X0*%
%ADD30RoundRect,0.150000X0.625000X-0.150000X0.625000X0.150000X-0.625000X0.150000X-0.625000X-0.150000X0*%
%ADD31RoundRect,0.250000X0.650000X-0.350000X0.650000X0.350000X-0.650000X0.350000X-0.650000X-0.350000X0*%
G04 APERTURE END LIST*
D10*
X105007200Y-58914285D02*
X105054819Y-58771428D01*
X105054819Y-58771428D02*
X105054819Y-58533333D01*
X105054819Y-58533333D02*
X105007200Y-58438095D01*
X105007200Y-58438095D02*
X104959580Y-58390476D01*
X104959580Y-58390476D02*
X104864342Y-58342857D01*
X104864342Y-58342857D02*
X104769104Y-58342857D01*
X104769104Y-58342857D02*
X104673866Y-58390476D01*
X104673866Y-58390476D02*
X104626247Y-58438095D01*
X104626247Y-58438095D02*
X104578628Y-58533333D01*
X104578628Y-58533333D02*
X104531009Y-58723809D01*
X104531009Y-58723809D02*
X104483390Y-58819047D01*
X104483390Y-58819047D02*
X104435771Y-58866666D01*
X104435771Y-58866666D02*
X104340533Y-58914285D01*
X104340533Y-58914285D02*
X104245295Y-58914285D01*
X104245295Y-58914285D02*
X104150057Y-58866666D01*
X104150057Y-58866666D02*
X104102438Y-58819047D01*
X104102438Y-58819047D02*
X104054819Y-58723809D01*
X104054819Y-58723809D02*
X104054819Y-58485714D01*
X104054819Y-58485714D02*
X104102438Y-58342857D01*
X105054819Y-57914285D02*
X104054819Y-57914285D01*
X104531009Y-57914285D02*
X104531009Y-57342857D01*
X105054819Y-57342857D02*
X104054819Y-57342857D01*
X104054819Y-57009523D02*
X104054819Y-56438095D01*
X105054819Y-56723809D02*
X104054819Y-56723809D01*
X105054819Y-56104761D02*
X104054819Y-56104761D01*
X104054819Y-56104761D02*
X104054819Y-55866666D01*
X104054819Y-55866666D02*
X104102438Y-55723809D01*
X104102438Y-55723809D02*
X104197676Y-55628571D01*
X104197676Y-55628571D02*
X104292914Y-55580952D01*
X104292914Y-55580952D02*
X104483390Y-55533333D01*
X104483390Y-55533333D02*
X104626247Y-55533333D01*
X104626247Y-55533333D02*
X104816723Y-55580952D01*
X104816723Y-55580952D02*
X104911961Y-55628571D01*
X104911961Y-55628571D02*
X105007200Y-55723809D01*
X105007200Y-55723809D02*
X105054819Y-55866666D01*
X105054819Y-55866666D02*
X105054819Y-56104761D01*
X105054819Y-55104761D02*
X104054819Y-55104761D01*
X104054819Y-55104761D02*
X105054819Y-54533333D01*
X105054819Y-54533333D02*
X104054819Y-54533333D01*
X98959580Y-58428571D02*
X99007200Y-58476190D01*
X99007200Y-58476190D02*
X99054819Y-58619047D01*
X99054819Y-58619047D02*
X99054819Y-58714285D01*
X99054819Y-58714285D02*
X99007200Y-58857142D01*
X99007200Y-58857142D02*
X98911961Y-58952380D01*
X98911961Y-58952380D02*
X98816723Y-58999999D01*
X98816723Y-58999999D02*
X98626247Y-59047618D01*
X98626247Y-59047618D02*
X98483390Y-59047618D01*
X98483390Y-59047618D02*
X98292914Y-58999999D01*
X98292914Y-58999999D02*
X98197676Y-58952380D01*
X98197676Y-58952380D02*
X98102438Y-58857142D01*
X98102438Y-58857142D02*
X98054819Y-58714285D01*
X98054819Y-58714285D02*
X98054819Y-58619047D01*
X98054819Y-58619047D02*
X98102438Y-58476190D01*
X98102438Y-58476190D02*
X98150057Y-58428571D01*
X99054819Y-57523809D02*
X99054819Y-57999999D01*
X99054819Y-57999999D02*
X98054819Y-57999999D01*
X99054819Y-57190475D02*
X98054819Y-57190475D01*
X99054819Y-56619047D02*
X98483390Y-57047618D01*
X98054819Y-56619047D02*
X98626247Y-57190475D01*
X99007200Y-56238094D02*
X99054819Y-56095237D01*
X99054819Y-56095237D02*
X99054819Y-55857142D01*
X99054819Y-55857142D02*
X99007200Y-55761904D01*
X99007200Y-55761904D02*
X98959580Y-55714285D01*
X98959580Y-55714285D02*
X98864342Y-55666666D01*
X98864342Y-55666666D02*
X98769104Y-55666666D01*
X98769104Y-55666666D02*
X98673866Y-55714285D01*
X98673866Y-55714285D02*
X98626247Y-55761904D01*
X98626247Y-55761904D02*
X98578628Y-55857142D01*
X98578628Y-55857142D02*
X98531009Y-56047618D01*
X98531009Y-56047618D02*
X98483390Y-56142856D01*
X98483390Y-56142856D02*
X98435771Y-56190475D01*
X98435771Y-56190475D02*
X98340533Y-56238094D01*
X98340533Y-56238094D02*
X98245295Y-56238094D01*
X98245295Y-56238094D02*
X98150057Y-56190475D01*
X98150057Y-56190475D02*
X98102438Y-56142856D01*
X98102438Y-56142856D02*
X98054819Y-56047618D01*
X98054819Y-56047618D02*
X98054819Y-55809523D01*
X98054819Y-55809523D02*
X98102438Y-55666666D01*
X98531009Y-55238094D02*
X98531009Y-54904761D01*
X99054819Y-54761904D02*
X99054819Y-55238094D01*
X99054819Y-55238094D02*
X98054819Y-55238094D01*
X98054819Y-55238094D02*
X98054819Y-54761904D01*
X99054819Y-53857142D02*
X99054819Y-54333332D01*
X99054819Y-54333332D02*
X98054819Y-54333332D01*
D11*
X99969673Y-42147331D02*
X99969673Y-41147331D01*
X99969673Y-41147331D02*
X100350625Y-41147331D01*
X100350625Y-41147331D02*
X100445863Y-41194950D01*
X100445863Y-41194950D02*
X100493482Y-41242569D01*
X100493482Y-41242569D02*
X100541101Y-41337807D01*
X100541101Y-41337807D02*
X100541101Y-41480664D01*
X100541101Y-41480664D02*
X100493482Y-41575902D01*
X100493482Y-41575902D02*
X100445863Y-41623521D01*
X100445863Y-41623521D02*
X100350625Y-41671140D01*
X100350625Y-41671140D02*
X99969673Y-41671140D01*
X100969673Y-42147331D02*
X100969673Y-41480664D01*
X100969673Y-41671140D02*
X101017292Y-41575902D01*
X101017292Y-41575902D02*
X101064911Y-41528283D01*
X101064911Y-41528283D02*
X101160149Y-41480664D01*
X101160149Y-41480664D02*
X101255387Y-41480664D01*
X101731578Y-42147331D02*
X101636340Y-42099712D01*
X101636340Y-42099712D02*
X101588721Y-42052092D01*
X101588721Y-42052092D02*
X101541102Y-41956854D01*
X101541102Y-41956854D02*
X101541102Y-41671140D01*
X101541102Y-41671140D02*
X101588721Y-41575902D01*
X101588721Y-41575902D02*
X101636340Y-41528283D01*
X101636340Y-41528283D02*
X101731578Y-41480664D01*
X101731578Y-41480664D02*
X101874435Y-41480664D01*
X101874435Y-41480664D02*
X101969673Y-41528283D01*
X101969673Y-41528283D02*
X102017292Y-41575902D01*
X102017292Y-41575902D02*
X102064911Y-41671140D01*
X102064911Y-41671140D02*
X102064911Y-41956854D01*
X102064911Y-41956854D02*
X102017292Y-42052092D01*
X102017292Y-42052092D02*
X101969673Y-42099712D01*
X101969673Y-42099712D02*
X101874435Y-42147331D01*
X101874435Y-42147331D02*
X101731578Y-42147331D01*
X102493483Y-41480664D02*
X102493483Y-42337807D01*
X102493483Y-42337807D02*
X102445864Y-42433045D01*
X102445864Y-42433045D02*
X102350626Y-42480664D01*
X102350626Y-42480664D02*
X102303007Y-42480664D01*
X102493483Y-41147331D02*
X102445864Y-41194950D01*
X102445864Y-41194950D02*
X102493483Y-41242569D01*
X102493483Y-41242569D02*
X102541102Y-41194950D01*
X102541102Y-41194950D02*
X102493483Y-41147331D01*
X102493483Y-41147331D02*
X102493483Y-41242569D01*
X103350625Y-42099712D02*
X103255387Y-42147331D01*
X103255387Y-42147331D02*
X103064911Y-42147331D01*
X103064911Y-42147331D02*
X102969673Y-42099712D01*
X102969673Y-42099712D02*
X102922054Y-42004473D01*
X102922054Y-42004473D02*
X102922054Y-41623521D01*
X102922054Y-41623521D02*
X102969673Y-41528283D01*
X102969673Y-41528283D02*
X103064911Y-41480664D01*
X103064911Y-41480664D02*
X103255387Y-41480664D01*
X103255387Y-41480664D02*
X103350625Y-41528283D01*
X103350625Y-41528283D02*
X103398244Y-41623521D01*
X103398244Y-41623521D02*
X103398244Y-41718759D01*
X103398244Y-41718759D02*
X102922054Y-41813997D01*
X104255387Y-42099712D02*
X104160149Y-42147331D01*
X104160149Y-42147331D02*
X103969673Y-42147331D01*
X103969673Y-42147331D02*
X103874435Y-42099712D01*
X103874435Y-42099712D02*
X103826816Y-42052092D01*
X103826816Y-42052092D02*
X103779197Y-41956854D01*
X103779197Y-41956854D02*
X103779197Y-41671140D01*
X103779197Y-41671140D02*
X103826816Y-41575902D01*
X103826816Y-41575902D02*
X103874435Y-41528283D01*
X103874435Y-41528283D02*
X103969673Y-41480664D01*
X103969673Y-41480664D02*
X104160149Y-41480664D01*
X104160149Y-41480664D02*
X104255387Y-41528283D01*
X104541102Y-41480664D02*
X104922054Y-41480664D01*
X104683959Y-41147331D02*
X104683959Y-42004473D01*
X104683959Y-42004473D02*
X104731578Y-42099712D01*
X104731578Y-42099712D02*
X104826816Y-42147331D01*
X104826816Y-42147331D02*
X104922054Y-42147331D01*
X106017293Y-42147331D02*
X106017293Y-41147331D01*
X106588721Y-42147331D02*
X106160150Y-41575902D01*
X106588721Y-41147331D02*
X106017293Y-41718759D01*
X107160150Y-42147331D02*
X107064912Y-42099712D01*
X107064912Y-42099712D02*
X107017293Y-42052092D01*
X107017293Y-42052092D02*
X106969674Y-41956854D01*
X106969674Y-41956854D02*
X106969674Y-41671140D01*
X106969674Y-41671140D02*
X107017293Y-41575902D01*
X107017293Y-41575902D02*
X107064912Y-41528283D01*
X107064912Y-41528283D02*
X107160150Y-41480664D01*
X107160150Y-41480664D02*
X107303007Y-41480664D01*
X107303007Y-41480664D02*
X107398245Y-41528283D01*
X107398245Y-41528283D02*
X107445864Y-41575902D01*
X107445864Y-41575902D02*
X107493483Y-41671140D01*
X107493483Y-41671140D02*
X107493483Y-41956854D01*
X107493483Y-41956854D02*
X107445864Y-42052092D01*
X107445864Y-42052092D02*
X107398245Y-42099712D01*
X107398245Y-42099712D02*
X107303007Y-42147331D01*
X107303007Y-42147331D02*
X107160150Y-42147331D01*
X107826817Y-41480664D02*
X108064912Y-42147331D01*
X108303007Y-41480664D02*
X108064912Y-42147331D01*
X108064912Y-42147331D02*
X107969674Y-42385426D01*
X107969674Y-42385426D02*
X107922055Y-42433045D01*
X107922055Y-42433045D02*
X107826817Y-42480664D01*
X108826817Y-42147331D02*
X108731579Y-42099712D01*
X108731579Y-42099712D02*
X108683960Y-42052092D01*
X108683960Y-42052092D02*
X108636341Y-41956854D01*
X108636341Y-41956854D02*
X108636341Y-41671140D01*
X108636341Y-41671140D02*
X108683960Y-41575902D01*
X108683960Y-41575902D02*
X108731579Y-41528283D01*
X108731579Y-41528283D02*
X108826817Y-41480664D01*
X108826817Y-41480664D02*
X108969674Y-41480664D01*
X108969674Y-41480664D02*
X109064912Y-41528283D01*
X109064912Y-41528283D02*
X109112531Y-41575902D01*
X109112531Y-41575902D02*
X109160150Y-41671140D01*
X109160150Y-41671140D02*
X109160150Y-41956854D01*
X109160150Y-41956854D02*
X109112531Y-42052092D01*
X109112531Y-42052092D02*
X109064912Y-42099712D01*
X109064912Y-42099712D02*
X108969674Y-42147331D01*
X108969674Y-42147331D02*
X108826817Y-42147331D01*
X109588722Y-42147331D02*
X109588722Y-41480664D01*
X109588722Y-41575902D02*
X109636341Y-41528283D01*
X109636341Y-41528283D02*
X109731579Y-41480664D01*
X109731579Y-41480664D02*
X109874436Y-41480664D01*
X109874436Y-41480664D02*
X109969674Y-41528283D01*
X109969674Y-41528283D02*
X110017293Y-41623521D01*
X110017293Y-41623521D02*
X110017293Y-42147331D01*
X110017293Y-41623521D02*
X110064912Y-41528283D01*
X110064912Y-41528283D02*
X110160150Y-41480664D01*
X110160150Y-41480664D02*
X110303007Y-41480664D01*
X110303007Y-41480664D02*
X110398246Y-41528283D01*
X110398246Y-41528283D02*
X110445865Y-41623521D01*
X110445865Y-41623521D02*
X110445865Y-42147331D01*
X110922055Y-42147331D02*
X110922055Y-41480664D01*
X110922055Y-41147331D02*
X110874436Y-41194950D01*
X110874436Y-41194950D02*
X110922055Y-41242569D01*
X110922055Y-41242569D02*
X110969674Y-41194950D01*
X110969674Y-41194950D02*
X110922055Y-41147331D01*
X110922055Y-41147331D02*
X110922055Y-41242569D01*
X100445863Y-43757275D02*
X99969673Y-43757275D01*
X99969673Y-43757275D02*
X99969673Y-42757275D01*
X100636340Y-42757275D02*
X100969673Y-43757275D01*
X100969673Y-43757275D02*
X101303006Y-42757275D01*
X101636340Y-43757275D02*
X101636340Y-42757275D01*
X101636340Y-42757275D02*
X101874435Y-42757275D01*
X101874435Y-42757275D02*
X102017292Y-42804894D01*
X102017292Y-42804894D02*
X102112530Y-42900132D01*
X102112530Y-42900132D02*
X102160149Y-42995370D01*
X102160149Y-42995370D02*
X102207768Y-43185846D01*
X102207768Y-43185846D02*
X102207768Y-43328703D01*
X102207768Y-43328703D02*
X102160149Y-43519179D01*
X102160149Y-43519179D02*
X102112530Y-43614417D01*
X102112530Y-43614417D02*
X102017292Y-43709656D01*
X102017292Y-43709656D02*
X101874435Y-43757275D01*
X101874435Y-43757275D02*
X101636340Y-43757275D01*
X102588721Y-43709656D02*
X102731578Y-43757275D01*
X102731578Y-43757275D02*
X102969673Y-43757275D01*
X102969673Y-43757275D02*
X103064911Y-43709656D01*
X103064911Y-43709656D02*
X103112530Y-43662036D01*
X103112530Y-43662036D02*
X103160149Y-43566798D01*
X103160149Y-43566798D02*
X103160149Y-43471560D01*
X103160149Y-43471560D02*
X103112530Y-43376322D01*
X103112530Y-43376322D02*
X103064911Y-43328703D01*
X103064911Y-43328703D02*
X102969673Y-43281084D01*
X102969673Y-43281084D02*
X102779197Y-43233465D01*
X102779197Y-43233465D02*
X102683959Y-43185846D01*
X102683959Y-43185846D02*
X102636340Y-43138227D01*
X102636340Y-43138227D02*
X102588721Y-43042989D01*
X102588721Y-43042989D02*
X102588721Y-42947751D01*
X102588721Y-42947751D02*
X102636340Y-42852513D01*
X102636340Y-42852513D02*
X102683959Y-42804894D01*
X102683959Y-42804894D02*
X102779197Y-42757275D01*
X102779197Y-42757275D02*
X103017292Y-42757275D01*
X103017292Y-42757275D02*
X103160149Y-42804894D01*
X104350626Y-43757275D02*
X104350626Y-42757275D01*
X104779197Y-43757275D02*
X104779197Y-43233465D01*
X104779197Y-43233465D02*
X104731578Y-43138227D01*
X104731578Y-43138227D02*
X104636340Y-43090608D01*
X104636340Y-43090608D02*
X104493483Y-43090608D01*
X104493483Y-43090608D02*
X104398245Y-43138227D01*
X104398245Y-43138227D02*
X104350626Y-43185846D01*
X105683959Y-43757275D02*
X105683959Y-43233465D01*
X105683959Y-43233465D02*
X105636340Y-43138227D01*
X105636340Y-43138227D02*
X105541102Y-43090608D01*
X105541102Y-43090608D02*
X105350626Y-43090608D01*
X105350626Y-43090608D02*
X105255388Y-43138227D01*
X105683959Y-43709656D02*
X105588721Y-43757275D01*
X105588721Y-43757275D02*
X105350626Y-43757275D01*
X105350626Y-43757275D02*
X105255388Y-43709656D01*
X105255388Y-43709656D02*
X105207769Y-43614417D01*
X105207769Y-43614417D02*
X105207769Y-43519179D01*
X105207769Y-43519179D02*
X105255388Y-43423941D01*
X105255388Y-43423941D02*
X105350626Y-43376322D01*
X105350626Y-43376322D02*
X105588721Y-43376322D01*
X105588721Y-43376322D02*
X105683959Y-43328703D01*
X106017293Y-43090608D02*
X106398245Y-43090608D01*
X106160150Y-42757275D02*
X106160150Y-43614417D01*
X106160150Y-43614417D02*
X106207769Y-43709656D01*
X106207769Y-43709656D02*
X106303007Y-43757275D01*
X106303007Y-43757275D02*
X106398245Y-43757275D01*
X107398246Y-43090608D02*
X107636341Y-43757275D01*
X107636341Y-43757275D02*
X107874436Y-43090608D01*
X108779198Y-43757275D02*
X108207770Y-43757275D01*
X108493484Y-43757275D02*
X108493484Y-42757275D01*
X108493484Y-42757275D02*
X108398246Y-42900132D01*
X108398246Y-42900132D02*
X108303008Y-42995370D01*
X108303008Y-42995370D02*
X108207770Y-43042989D01*
X109207770Y-43662036D02*
X109255389Y-43709656D01*
X109255389Y-43709656D02*
X109207770Y-43757275D01*
X109207770Y-43757275D02*
X109160151Y-43709656D01*
X109160151Y-43709656D02*
X109207770Y-43662036D01*
X109207770Y-43662036D02*
X109207770Y-43757275D01*
X110207769Y-43757275D02*
X109636341Y-43757275D01*
X109922055Y-43757275D02*
X109922055Y-42757275D01*
X109922055Y-42757275D02*
X109826817Y-42900132D01*
X109826817Y-42900132D02*
X109731579Y-42995370D01*
X109731579Y-42995370D02*
X109636341Y-43042989D01*
X99969673Y-45367219D02*
X99969673Y-44367219D01*
X99969673Y-44748171D02*
X100064911Y-44700552D01*
X100064911Y-44700552D02*
X100255387Y-44700552D01*
X100255387Y-44700552D02*
X100350625Y-44748171D01*
X100350625Y-44748171D02*
X100398244Y-44795790D01*
X100398244Y-44795790D02*
X100445863Y-44891028D01*
X100445863Y-44891028D02*
X100445863Y-45176742D01*
X100445863Y-45176742D02*
X100398244Y-45271980D01*
X100398244Y-45271980D02*
X100350625Y-45319600D01*
X100350625Y-45319600D02*
X100255387Y-45367219D01*
X100255387Y-45367219D02*
X100064911Y-45367219D01*
X100064911Y-45367219D02*
X99969673Y-45319600D01*
X100779197Y-44700552D02*
X101017292Y-45367219D01*
X101255387Y-44700552D02*
X101017292Y-45367219D01*
X101017292Y-45367219D02*
X100922054Y-45605314D01*
X100922054Y-45605314D02*
X100874435Y-45652933D01*
X100874435Y-45652933D02*
X100779197Y-45700552D01*
X102398245Y-44843409D02*
X102731578Y-44843409D01*
X102874435Y-45367219D02*
X102398245Y-45367219D01*
X102398245Y-45367219D02*
X102398245Y-44367219D01*
X102398245Y-44367219D02*
X102874435Y-44367219D01*
X103207769Y-45367219D02*
X103731578Y-44700552D01*
X103207769Y-44700552D02*
X103731578Y-45367219D01*
X104493483Y-45319600D02*
X104398245Y-45367219D01*
X104398245Y-45367219D02*
X104207769Y-45367219D01*
X104207769Y-45367219D02*
X104112531Y-45319600D01*
X104112531Y-45319600D02*
X104064912Y-45224361D01*
X104064912Y-45224361D02*
X104064912Y-44843409D01*
X104064912Y-44843409D02*
X104112531Y-44748171D01*
X104112531Y-44748171D02*
X104207769Y-44700552D01*
X104207769Y-44700552D02*
X104398245Y-44700552D01*
X104398245Y-44700552D02*
X104493483Y-44748171D01*
X104493483Y-44748171D02*
X104541102Y-44843409D01*
X104541102Y-44843409D02*
X104541102Y-44938647D01*
X104541102Y-44938647D02*
X104064912Y-45033885D01*
X104969674Y-44700552D02*
X104969674Y-45367219D01*
X104969674Y-44795790D02*
X105017293Y-44748171D01*
X105017293Y-44748171D02*
X105112531Y-44700552D01*
X105112531Y-44700552D02*
X105255388Y-44700552D01*
X105255388Y-44700552D02*
X105350626Y-44748171D01*
X105350626Y-44748171D02*
X105398245Y-44843409D01*
X105398245Y-44843409D02*
X105398245Y-45367219D01*
X105731579Y-44700552D02*
X106112531Y-44700552D01*
X105874436Y-44367219D02*
X105874436Y-45224361D01*
X105874436Y-45224361D02*
X105922055Y-45319600D01*
X105922055Y-45319600D02*
X106017293Y-45367219D01*
X106017293Y-45367219D02*
X106112531Y-45367219D01*
X106445865Y-45367219D02*
X106445865Y-44700552D01*
X106445865Y-44367219D02*
X106398246Y-44414838D01*
X106398246Y-44414838D02*
X106445865Y-44462457D01*
X106445865Y-44462457D02*
X106493484Y-44414838D01*
X106493484Y-44414838D02*
X106445865Y-44367219D01*
X106445865Y-44367219D02*
X106445865Y-44462457D01*
X107064912Y-45367219D02*
X106969674Y-45319600D01*
X106969674Y-45319600D02*
X106922055Y-45271980D01*
X106922055Y-45271980D02*
X106874436Y-45176742D01*
X106874436Y-45176742D02*
X106874436Y-44891028D01*
X106874436Y-44891028D02*
X106922055Y-44795790D01*
X106922055Y-44795790D02*
X106969674Y-44748171D01*
X106969674Y-44748171D02*
X107064912Y-44700552D01*
X107064912Y-44700552D02*
X107207769Y-44700552D01*
X107207769Y-44700552D02*
X107303007Y-44748171D01*
X107303007Y-44748171D02*
X107350626Y-44795790D01*
X107350626Y-44795790D02*
X107398245Y-44891028D01*
X107398245Y-44891028D02*
X107398245Y-45176742D01*
X107398245Y-45176742D02*
X107350626Y-45271980D01*
X107350626Y-45271980D02*
X107303007Y-45319600D01*
X107303007Y-45319600D02*
X107207769Y-45367219D01*
X107207769Y-45367219D02*
X107064912Y-45367219D01*
X142039850Y-30902877D02*
X141896993Y-30831448D01*
X141896993Y-30831448D02*
X141682707Y-30831448D01*
X141682707Y-30831448D02*
X141468421Y-30902877D01*
X141468421Y-30902877D02*
X141325564Y-31045734D01*
X141325564Y-31045734D02*
X141254135Y-31188591D01*
X141254135Y-31188591D02*
X141182707Y-31474305D01*
X141182707Y-31474305D02*
X141182707Y-31688591D01*
X141182707Y-31688591D02*
X141254135Y-31974305D01*
X141254135Y-31974305D02*
X141325564Y-32117162D01*
X141325564Y-32117162D02*
X141468421Y-32260020D01*
X141468421Y-32260020D02*
X141682707Y-32331448D01*
X141682707Y-32331448D02*
X141825564Y-32331448D01*
X141825564Y-32331448D02*
X142039850Y-32260020D01*
X142039850Y-32260020D02*
X142111278Y-32188591D01*
X142111278Y-32188591D02*
X142111278Y-31688591D01*
X142111278Y-31688591D02*
X141825564Y-31688591D01*
X142754135Y-32331448D02*
X142754135Y-30831448D01*
X142754135Y-30831448D02*
X143611278Y-32331448D01*
X143611278Y-32331448D02*
X143611278Y-30831448D01*
X144325564Y-32331448D02*
X144325564Y-30831448D01*
X144325564Y-30831448D02*
X144682707Y-30831448D01*
X144682707Y-30831448D02*
X144896993Y-30902877D01*
X144896993Y-30902877D02*
X145039850Y-31045734D01*
X145039850Y-31045734D02*
X145111279Y-31188591D01*
X145111279Y-31188591D02*
X145182707Y-31474305D01*
X145182707Y-31474305D02*
X145182707Y-31688591D01*
X145182707Y-31688591D02*
X145111279Y-31974305D01*
X145111279Y-31974305D02*
X145039850Y-32117162D01*
X145039850Y-32117162D02*
X144896993Y-32260020D01*
X144896993Y-32260020D02*
X144682707Y-32331448D01*
X144682707Y-32331448D02*
X144325564Y-32331448D01*
X142254137Y-33317793D02*
X142111280Y-33246364D01*
X142111280Y-33246364D02*
X141896994Y-33246364D01*
X141896994Y-33246364D02*
X141682708Y-33317793D01*
X141682708Y-33317793D02*
X141539851Y-33460650D01*
X141539851Y-33460650D02*
X141468422Y-33603507D01*
X141468422Y-33603507D02*
X141396994Y-33889221D01*
X141396994Y-33889221D02*
X141396994Y-34103507D01*
X141396994Y-34103507D02*
X141468422Y-34389221D01*
X141468422Y-34389221D02*
X141539851Y-34532078D01*
X141539851Y-34532078D02*
X141682708Y-34674936D01*
X141682708Y-34674936D02*
X141896994Y-34746364D01*
X141896994Y-34746364D02*
X142039851Y-34746364D01*
X142039851Y-34746364D02*
X142254137Y-34674936D01*
X142254137Y-34674936D02*
X142325565Y-34603507D01*
X142325565Y-34603507D02*
X142325565Y-34103507D01*
X142325565Y-34103507D02*
X142039851Y-34103507D01*
X142896994Y-33389221D02*
X142968422Y-33317793D01*
X142968422Y-33317793D02*
X143111280Y-33246364D01*
X143111280Y-33246364D02*
X143468422Y-33246364D01*
X143468422Y-33246364D02*
X143611280Y-33317793D01*
X143611280Y-33317793D02*
X143682708Y-33389221D01*
X143682708Y-33389221D02*
X143754137Y-33532078D01*
X143754137Y-33532078D02*
X143754137Y-33674936D01*
X143754137Y-33674936D02*
X143682708Y-33889221D01*
X143682708Y-33889221D02*
X142825565Y-34746364D01*
X142825565Y-34746364D02*
X143754137Y-34746364D01*
X145111279Y-33246364D02*
X144396993Y-33246364D01*
X144396993Y-33246364D02*
X144325565Y-33960650D01*
X144325565Y-33960650D02*
X144396993Y-33889221D01*
X144396993Y-33889221D02*
X144539851Y-33817793D01*
X144539851Y-33817793D02*
X144896993Y-33817793D01*
X144896993Y-33817793D02*
X145039851Y-33889221D01*
X145039851Y-33889221D02*
X145111279Y-33960650D01*
X145111279Y-33960650D02*
X145182708Y-34103507D01*
X145182708Y-34103507D02*
X145182708Y-34460650D01*
X145182708Y-34460650D02*
X145111279Y-34603507D01*
X145111279Y-34603507D02*
X145039851Y-34674936D01*
X145039851Y-34674936D02*
X144896993Y-34746364D01*
X144896993Y-34746364D02*
X144539851Y-34746364D01*
X144539851Y-34746364D02*
X144396993Y-34674936D01*
X144396993Y-34674936D02*
X144325565Y-34603507D01*
X136754137Y-37089852D02*
X136968423Y-37161280D01*
X136968423Y-37161280D02*
X137325565Y-37161280D01*
X137325565Y-37161280D02*
X137468423Y-37089852D01*
X137468423Y-37089852D02*
X137539851Y-37018423D01*
X137539851Y-37018423D02*
X137611280Y-36875566D01*
X137611280Y-36875566D02*
X137611280Y-36732709D01*
X137611280Y-36732709D02*
X137539851Y-36589852D01*
X137539851Y-36589852D02*
X137468423Y-36518423D01*
X137468423Y-36518423D02*
X137325565Y-36446994D01*
X137325565Y-36446994D02*
X137039851Y-36375566D01*
X137039851Y-36375566D02*
X136896994Y-36304137D01*
X136896994Y-36304137D02*
X136825565Y-36232709D01*
X136825565Y-36232709D02*
X136754137Y-36089852D01*
X136754137Y-36089852D02*
X136754137Y-35946994D01*
X136754137Y-35946994D02*
X136825565Y-35804137D01*
X136825565Y-35804137D02*
X136896994Y-35732709D01*
X136896994Y-35732709D02*
X137039851Y-35661280D01*
X137039851Y-35661280D02*
X137396994Y-35661280D01*
X137396994Y-35661280D02*
X137611280Y-35732709D01*
X139111279Y-37018423D02*
X139039851Y-37089852D01*
X139039851Y-37089852D02*
X138825565Y-37161280D01*
X138825565Y-37161280D02*
X138682708Y-37161280D01*
X138682708Y-37161280D02*
X138468422Y-37089852D01*
X138468422Y-37089852D02*
X138325565Y-36946994D01*
X138325565Y-36946994D02*
X138254136Y-36804137D01*
X138254136Y-36804137D02*
X138182708Y-36518423D01*
X138182708Y-36518423D02*
X138182708Y-36304137D01*
X138182708Y-36304137D02*
X138254136Y-36018423D01*
X138254136Y-36018423D02*
X138325565Y-35875566D01*
X138325565Y-35875566D02*
X138468422Y-35732709D01*
X138468422Y-35732709D02*
X138682708Y-35661280D01*
X138682708Y-35661280D02*
X138825565Y-35661280D01*
X138825565Y-35661280D02*
X139039851Y-35732709D01*
X139039851Y-35732709D02*
X139111279Y-35804137D01*
X140468422Y-37161280D02*
X139754136Y-37161280D01*
X139754136Y-37161280D02*
X139754136Y-35661280D01*
X141396994Y-37732709D02*
X141325565Y-37661280D01*
X141325565Y-37661280D02*
X141182708Y-37446994D01*
X141182708Y-37446994D02*
X141111280Y-37304137D01*
X141111280Y-37304137D02*
X141039851Y-37089852D01*
X141039851Y-37089852D02*
X140968422Y-36732709D01*
X140968422Y-36732709D02*
X140968422Y-36446994D01*
X140968422Y-36446994D02*
X141039851Y-36089852D01*
X141039851Y-36089852D02*
X141111280Y-35875566D01*
X141111280Y-35875566D02*
X141182708Y-35732709D01*
X141182708Y-35732709D02*
X141325565Y-35518423D01*
X141325565Y-35518423D02*
X141396994Y-35446994D01*
X141896994Y-35804137D02*
X141968422Y-35732709D01*
X141968422Y-35732709D02*
X142111280Y-35661280D01*
X142111280Y-35661280D02*
X142468422Y-35661280D01*
X142468422Y-35661280D02*
X142611280Y-35732709D01*
X142611280Y-35732709D02*
X142682708Y-35804137D01*
X142682708Y-35804137D02*
X142754137Y-35946994D01*
X142754137Y-35946994D02*
X142754137Y-36089852D01*
X142754137Y-36089852D02*
X142682708Y-36304137D01*
X142682708Y-36304137D02*
X141825565Y-37161280D01*
X141825565Y-37161280D02*
X142754137Y-37161280D01*
X144039851Y-36161280D02*
X144039851Y-37161280D01*
X143682708Y-35589852D02*
X143325565Y-36661280D01*
X143325565Y-36661280D02*
X144254136Y-36661280D01*
X144682707Y-37732709D02*
X144754136Y-37661280D01*
X144754136Y-37661280D02*
X144896993Y-37446994D01*
X144896993Y-37446994D02*
X144968422Y-37304137D01*
X144968422Y-37304137D02*
X145039850Y-37089852D01*
X145039850Y-37089852D02*
X145111279Y-36732709D01*
X145111279Y-36732709D02*
X145111279Y-36446994D01*
X145111279Y-36446994D02*
X145039850Y-36089852D01*
X145039850Y-36089852D02*
X144968422Y-35875566D01*
X144968422Y-35875566D02*
X144896993Y-35732709D01*
X144896993Y-35732709D02*
X144754136Y-35518423D01*
X144754136Y-35518423D02*
X144682707Y-35446994D01*
X136682709Y-39504768D02*
X136896995Y-39576196D01*
X136896995Y-39576196D02*
X137254137Y-39576196D01*
X137254137Y-39576196D02*
X137396995Y-39504768D01*
X137396995Y-39504768D02*
X137468423Y-39433339D01*
X137468423Y-39433339D02*
X137539852Y-39290482D01*
X137539852Y-39290482D02*
X137539852Y-39147625D01*
X137539852Y-39147625D02*
X137468423Y-39004768D01*
X137468423Y-39004768D02*
X137396995Y-38933339D01*
X137396995Y-38933339D02*
X137254137Y-38861910D01*
X137254137Y-38861910D02*
X136968423Y-38790482D01*
X136968423Y-38790482D02*
X136825566Y-38719053D01*
X136825566Y-38719053D02*
X136754137Y-38647625D01*
X136754137Y-38647625D02*
X136682709Y-38504768D01*
X136682709Y-38504768D02*
X136682709Y-38361910D01*
X136682709Y-38361910D02*
X136754137Y-38219053D01*
X136754137Y-38219053D02*
X136825566Y-38147625D01*
X136825566Y-38147625D02*
X136968423Y-38076196D01*
X136968423Y-38076196D02*
X137325566Y-38076196D01*
X137325566Y-38076196D02*
X137539852Y-38147625D01*
X138182708Y-39576196D02*
X138182708Y-38076196D01*
X138182708Y-38076196D02*
X138539851Y-38076196D01*
X138539851Y-38076196D02*
X138754137Y-38147625D01*
X138754137Y-38147625D02*
X138896994Y-38290482D01*
X138896994Y-38290482D02*
X138968423Y-38433339D01*
X138968423Y-38433339D02*
X139039851Y-38719053D01*
X139039851Y-38719053D02*
X139039851Y-38933339D01*
X139039851Y-38933339D02*
X138968423Y-39219053D01*
X138968423Y-39219053D02*
X138896994Y-39361910D01*
X138896994Y-39361910D02*
X138754137Y-39504768D01*
X138754137Y-39504768D02*
X138539851Y-39576196D01*
X138539851Y-39576196D02*
X138182708Y-39576196D01*
X139611280Y-39147625D02*
X140325566Y-39147625D01*
X139468423Y-39576196D02*
X139968423Y-38076196D01*
X139968423Y-38076196D02*
X140468423Y-39576196D01*
X141396994Y-40147625D02*
X141325565Y-40076196D01*
X141325565Y-40076196D02*
X141182708Y-39861910D01*
X141182708Y-39861910D02*
X141111280Y-39719053D01*
X141111280Y-39719053D02*
X141039851Y-39504768D01*
X141039851Y-39504768D02*
X140968422Y-39147625D01*
X140968422Y-39147625D02*
X140968422Y-38861910D01*
X140968422Y-38861910D02*
X141039851Y-38504768D01*
X141039851Y-38504768D02*
X141111280Y-38290482D01*
X141111280Y-38290482D02*
X141182708Y-38147625D01*
X141182708Y-38147625D02*
X141325565Y-37933339D01*
X141325565Y-37933339D02*
X141396994Y-37861910D01*
X141896994Y-38219053D02*
X141968422Y-38147625D01*
X141968422Y-38147625D02*
X142111280Y-38076196D01*
X142111280Y-38076196D02*
X142468422Y-38076196D01*
X142468422Y-38076196D02*
X142611280Y-38147625D01*
X142611280Y-38147625D02*
X142682708Y-38219053D01*
X142682708Y-38219053D02*
X142754137Y-38361910D01*
X142754137Y-38361910D02*
X142754137Y-38504768D01*
X142754137Y-38504768D02*
X142682708Y-38719053D01*
X142682708Y-38719053D02*
X141825565Y-39576196D01*
X141825565Y-39576196D02*
X142754137Y-39576196D01*
X143254136Y-38076196D02*
X144182708Y-38076196D01*
X144182708Y-38076196D02*
X143682708Y-38647625D01*
X143682708Y-38647625D02*
X143896993Y-38647625D01*
X143896993Y-38647625D02*
X144039851Y-38719053D01*
X144039851Y-38719053D02*
X144111279Y-38790482D01*
X144111279Y-38790482D02*
X144182708Y-38933339D01*
X144182708Y-38933339D02*
X144182708Y-39290482D01*
X144182708Y-39290482D02*
X144111279Y-39433339D01*
X144111279Y-39433339D02*
X144039851Y-39504768D01*
X144039851Y-39504768D02*
X143896993Y-39576196D01*
X143896993Y-39576196D02*
X143468422Y-39576196D01*
X143468422Y-39576196D02*
X143325565Y-39504768D01*
X143325565Y-39504768D02*
X143254136Y-39433339D01*
X144682707Y-40147625D02*
X144754136Y-40076196D01*
X144754136Y-40076196D02*
X144896993Y-39861910D01*
X144896993Y-39861910D02*
X144968422Y-39719053D01*
X144968422Y-39719053D02*
X145039850Y-39504768D01*
X145039850Y-39504768D02*
X145111279Y-39147625D01*
X145111279Y-39147625D02*
X145111279Y-38861910D01*
X145111279Y-38861910D02*
X145039850Y-38504768D01*
X145039850Y-38504768D02*
X144968422Y-38290482D01*
X144968422Y-38290482D02*
X144896993Y-38147625D01*
X144896993Y-38147625D02*
X144754136Y-37933339D01*
X144754136Y-37933339D02*
X144682707Y-37861910D01*
X141539851Y-40491112D02*
X142468423Y-40491112D01*
X142468423Y-40491112D02*
X141968423Y-41062541D01*
X141968423Y-41062541D02*
X142182708Y-41062541D01*
X142182708Y-41062541D02*
X142325566Y-41133969D01*
X142325566Y-41133969D02*
X142396994Y-41205398D01*
X142396994Y-41205398D02*
X142468423Y-41348255D01*
X142468423Y-41348255D02*
X142468423Y-41705398D01*
X142468423Y-41705398D02*
X142396994Y-41848255D01*
X142396994Y-41848255D02*
X142325566Y-41919684D01*
X142325566Y-41919684D02*
X142182708Y-41991112D01*
X142182708Y-41991112D02*
X141754137Y-41991112D01*
X141754137Y-41991112D02*
X141611280Y-41919684D01*
X141611280Y-41919684D02*
X141539851Y-41848255D01*
X142896994Y-40491112D02*
X143396994Y-41991112D01*
X143396994Y-41991112D02*
X143896994Y-40491112D01*
X144254136Y-40491112D02*
X145182708Y-40491112D01*
X145182708Y-40491112D02*
X144682708Y-41062541D01*
X144682708Y-41062541D02*
X144896993Y-41062541D01*
X144896993Y-41062541D02*
X145039851Y-41133969D01*
X145039851Y-41133969D02*
X145111279Y-41205398D01*
X145111279Y-41205398D02*
X145182708Y-41348255D01*
X145182708Y-41348255D02*
X145182708Y-41705398D01*
X145182708Y-41705398D02*
X145111279Y-41848255D01*
X145111279Y-41848255D02*
X145039851Y-41919684D01*
X145039851Y-41919684D02*
X144896993Y-41991112D01*
X144896993Y-41991112D02*
X144468422Y-41991112D01*
X144468422Y-41991112D02*
X144325565Y-41919684D01*
X144325565Y-41919684D02*
X144254136Y-41848255D01*
X142254137Y-42977457D02*
X142111280Y-42906028D01*
X142111280Y-42906028D02*
X141896994Y-42906028D01*
X141896994Y-42906028D02*
X141682708Y-42977457D01*
X141682708Y-42977457D02*
X141539851Y-43120314D01*
X141539851Y-43120314D02*
X141468422Y-43263171D01*
X141468422Y-43263171D02*
X141396994Y-43548885D01*
X141396994Y-43548885D02*
X141396994Y-43763171D01*
X141396994Y-43763171D02*
X141468422Y-44048885D01*
X141468422Y-44048885D02*
X141539851Y-44191742D01*
X141539851Y-44191742D02*
X141682708Y-44334600D01*
X141682708Y-44334600D02*
X141896994Y-44406028D01*
X141896994Y-44406028D02*
X142039851Y-44406028D01*
X142039851Y-44406028D02*
X142254137Y-44334600D01*
X142254137Y-44334600D02*
X142325565Y-44263171D01*
X142325565Y-44263171D02*
X142325565Y-43763171D01*
X142325565Y-43763171D02*
X142039851Y-43763171D01*
X142896994Y-43048885D02*
X142968422Y-42977457D01*
X142968422Y-42977457D02*
X143111280Y-42906028D01*
X143111280Y-42906028D02*
X143468422Y-42906028D01*
X143468422Y-42906028D02*
X143611280Y-42977457D01*
X143611280Y-42977457D02*
X143682708Y-43048885D01*
X143682708Y-43048885D02*
X143754137Y-43191742D01*
X143754137Y-43191742D02*
X143754137Y-43334600D01*
X143754137Y-43334600D02*
X143682708Y-43548885D01*
X143682708Y-43548885D02*
X142825565Y-44406028D01*
X142825565Y-44406028D02*
X143754137Y-44406028D01*
X144325565Y-43048885D02*
X144396993Y-42977457D01*
X144396993Y-42977457D02*
X144539851Y-42906028D01*
X144539851Y-42906028D02*
X144896993Y-42906028D01*
X144896993Y-42906028D02*
X145039851Y-42977457D01*
X145039851Y-42977457D02*
X145111279Y-43048885D01*
X145111279Y-43048885D02*
X145182708Y-43191742D01*
X145182708Y-43191742D02*
X145182708Y-43334600D01*
X145182708Y-43334600D02*
X145111279Y-43548885D01*
X145111279Y-43548885D02*
X144254136Y-44406028D01*
X144254136Y-44406028D02*
X145182708Y-44406028D01*
D10*
X113070833Y-48389580D02*
X113023214Y-48437200D01*
X113023214Y-48437200D02*
X112880357Y-48484819D01*
X112880357Y-48484819D02*
X112785119Y-48484819D01*
X112785119Y-48484819D02*
X112642262Y-48437200D01*
X112642262Y-48437200D02*
X112547024Y-48341961D01*
X112547024Y-48341961D02*
X112499405Y-48246723D01*
X112499405Y-48246723D02*
X112451786Y-48056247D01*
X112451786Y-48056247D02*
X112451786Y-47913390D01*
X112451786Y-47913390D02*
X112499405Y-47722914D01*
X112499405Y-47722914D02*
X112547024Y-47627676D01*
X112547024Y-47627676D02*
X112642262Y-47532438D01*
X112642262Y-47532438D02*
X112785119Y-47484819D01*
X112785119Y-47484819D02*
X112880357Y-47484819D01*
X112880357Y-47484819D02*
X113023214Y-47532438D01*
X113023214Y-47532438D02*
X113070833Y-47580057D01*
X113451786Y-47580057D02*
X113499405Y-47532438D01*
X113499405Y-47532438D02*
X113594643Y-47484819D01*
X113594643Y-47484819D02*
X113832738Y-47484819D01*
X113832738Y-47484819D02*
X113927976Y-47532438D01*
X113927976Y-47532438D02*
X113975595Y-47580057D01*
X113975595Y-47580057D02*
X114023214Y-47675295D01*
X114023214Y-47675295D02*
X114023214Y-47770533D01*
X114023214Y-47770533D02*
X113975595Y-47913390D01*
X113975595Y-47913390D02*
X113404167Y-48484819D01*
X113404167Y-48484819D02*
X114023214Y-48484819D01*
X126403596Y-65456009D02*
X126070263Y-65456009D01*
X126070263Y-65979819D02*
X126070263Y-64979819D01*
X126070263Y-64979819D02*
X126546453Y-64979819D01*
X127403596Y-65979819D02*
X126927406Y-65979819D01*
X126927406Y-65979819D02*
X126927406Y-64979819D01*
X128260739Y-65979819D02*
X127689311Y-65979819D01*
X127975025Y-65979819D02*
X127975025Y-64979819D01*
X127975025Y-64979819D02*
X127879787Y-65122676D01*
X127879787Y-65122676D02*
X127784549Y-65217914D01*
X127784549Y-65217914D02*
X127689311Y-65265533D01*
X111629580Y-64866666D02*
X111677200Y-64914285D01*
X111677200Y-64914285D02*
X111724819Y-65057142D01*
X111724819Y-65057142D02*
X111724819Y-65152380D01*
X111724819Y-65152380D02*
X111677200Y-65295237D01*
X111677200Y-65295237D02*
X111581961Y-65390475D01*
X111581961Y-65390475D02*
X111486723Y-65438094D01*
X111486723Y-65438094D02*
X111296247Y-65485713D01*
X111296247Y-65485713D02*
X111153390Y-65485713D01*
X111153390Y-65485713D02*
X110962914Y-65438094D01*
X110962914Y-65438094D02*
X110867676Y-65390475D01*
X110867676Y-65390475D02*
X110772438Y-65295237D01*
X110772438Y-65295237D02*
X110724819Y-65152380D01*
X110724819Y-65152380D02*
X110724819Y-65057142D01*
X110724819Y-65057142D02*
X110772438Y-64914285D01*
X110772438Y-64914285D02*
X110820057Y-64866666D01*
X110724819Y-64009523D02*
X110724819Y-64199999D01*
X110724819Y-64199999D02*
X110772438Y-64295237D01*
X110772438Y-64295237D02*
X110820057Y-64342856D01*
X110820057Y-64342856D02*
X110962914Y-64438094D01*
X110962914Y-64438094D02*
X111153390Y-64485713D01*
X111153390Y-64485713D02*
X111534342Y-64485713D01*
X111534342Y-64485713D02*
X111629580Y-64438094D01*
X111629580Y-64438094D02*
X111677200Y-64390475D01*
X111677200Y-64390475D02*
X111724819Y-64295237D01*
X111724819Y-64295237D02*
X111724819Y-64104761D01*
X111724819Y-64104761D02*
X111677200Y-64009523D01*
X111677200Y-64009523D02*
X111629580Y-63961904D01*
X111629580Y-63961904D02*
X111534342Y-63914285D01*
X111534342Y-63914285D02*
X111296247Y-63914285D01*
X111296247Y-63914285D02*
X111201009Y-63961904D01*
X111201009Y-63961904D02*
X111153390Y-64009523D01*
X111153390Y-64009523D02*
X111105771Y-64104761D01*
X111105771Y-64104761D02*
X111105771Y-64295237D01*
X111105771Y-64295237D02*
X111153390Y-64390475D01*
X111153390Y-64390475D02*
X111201009Y-64438094D01*
X111201009Y-64438094D02*
X111296247Y-64485713D01*
X101854819Y-57333333D02*
X102569104Y-57333333D01*
X102569104Y-57333333D02*
X102711961Y-57380952D01*
X102711961Y-57380952D02*
X102807200Y-57476190D01*
X102807200Y-57476190D02*
X102854819Y-57619047D01*
X102854819Y-57619047D02*
X102854819Y-57714285D01*
X102854819Y-56857142D02*
X101854819Y-56857142D01*
X101854819Y-56857142D02*
X101854819Y-56476190D01*
X101854819Y-56476190D02*
X101902438Y-56380952D01*
X101902438Y-56380952D02*
X101950057Y-56333333D01*
X101950057Y-56333333D02*
X102045295Y-56285714D01*
X102045295Y-56285714D02*
X102188152Y-56285714D01*
X102188152Y-56285714D02*
X102283390Y-56333333D01*
X102283390Y-56333333D02*
X102331009Y-56380952D01*
X102331009Y-56380952D02*
X102378628Y-56476190D01*
X102378628Y-56476190D02*
X102378628Y-56857142D01*
X102854819Y-55333333D02*
X102854819Y-55904761D01*
X102854819Y-55619047D02*
X101854819Y-55619047D01*
X101854819Y-55619047D02*
X101997676Y-55714285D01*
X101997676Y-55714285D02*
X102092914Y-55809523D01*
X102092914Y-55809523D02*
X102140533Y-55904761D01*
X117041666Y-68369819D02*
X117041666Y-69084104D01*
X117041666Y-69084104D02*
X116994047Y-69226961D01*
X116994047Y-69226961D02*
X116898809Y-69322200D01*
X116898809Y-69322200D02*
X116755952Y-69369819D01*
X116755952Y-69369819D02*
X116660714Y-69369819D01*
X117470238Y-68465057D02*
X117517857Y-68417438D01*
X117517857Y-68417438D02*
X117613095Y-68369819D01*
X117613095Y-68369819D02*
X117851190Y-68369819D01*
X117851190Y-68369819D02*
X117946428Y-68417438D01*
X117946428Y-68417438D02*
X117994047Y-68465057D01*
X117994047Y-68465057D02*
X118041666Y-68560295D01*
X118041666Y-68560295D02*
X118041666Y-68655533D01*
X118041666Y-68655533D02*
X117994047Y-68798390D01*
X117994047Y-68798390D02*
X117422619Y-69369819D01*
X117422619Y-69369819D02*
X118041666Y-69369819D01*
X98624819Y-76213333D02*
X99339104Y-76213333D01*
X99339104Y-76213333D02*
X99481961Y-76260952D01*
X99481961Y-76260952D02*
X99577200Y-76356190D01*
X99577200Y-76356190D02*
X99624819Y-76499047D01*
X99624819Y-76499047D02*
X99624819Y-76594285D01*
X98624819Y-75832380D02*
X98624819Y-75213333D01*
X98624819Y-75213333D02*
X99005771Y-75546666D01*
X99005771Y-75546666D02*
X99005771Y-75403809D01*
X99005771Y-75403809D02*
X99053390Y-75308571D01*
X99053390Y-75308571D02*
X99101009Y-75260952D01*
X99101009Y-75260952D02*
X99196247Y-75213333D01*
X99196247Y-75213333D02*
X99434342Y-75213333D01*
X99434342Y-75213333D02*
X99529580Y-75260952D01*
X99529580Y-75260952D02*
X99577200Y-75308571D01*
X99577200Y-75308571D02*
X99624819Y-75403809D01*
X99624819Y-75403809D02*
X99624819Y-75689523D01*
X99624819Y-75689523D02*
X99577200Y-75784761D01*
X99577200Y-75784761D02*
X99529580Y-75832380D01*
X134866666Y-51254819D02*
X134866666Y-51969104D01*
X134866666Y-51969104D02*
X134819047Y-52111961D01*
X134819047Y-52111961D02*
X134723809Y-52207200D01*
X134723809Y-52207200D02*
X134580952Y-52254819D01*
X134580952Y-52254819D02*
X134485714Y-52254819D01*
X135247619Y-51254819D02*
X135914285Y-51254819D01*
X135914285Y-51254819D02*
X135485714Y-52254819D01*
X114729580Y-64866666D02*
X114777200Y-64914285D01*
X114777200Y-64914285D02*
X114824819Y-65057142D01*
X114824819Y-65057142D02*
X114824819Y-65152380D01*
X114824819Y-65152380D02*
X114777200Y-65295237D01*
X114777200Y-65295237D02*
X114681961Y-65390475D01*
X114681961Y-65390475D02*
X114586723Y-65438094D01*
X114586723Y-65438094D02*
X114396247Y-65485713D01*
X114396247Y-65485713D02*
X114253390Y-65485713D01*
X114253390Y-65485713D02*
X114062914Y-65438094D01*
X114062914Y-65438094D02*
X113967676Y-65390475D01*
X113967676Y-65390475D02*
X113872438Y-65295237D01*
X113872438Y-65295237D02*
X113824819Y-65152380D01*
X113824819Y-65152380D02*
X113824819Y-65057142D01*
X113824819Y-65057142D02*
X113872438Y-64914285D01*
X113872438Y-64914285D02*
X113920057Y-64866666D01*
X113824819Y-63961904D02*
X113824819Y-64438094D01*
X113824819Y-64438094D02*
X114301009Y-64485713D01*
X114301009Y-64485713D02*
X114253390Y-64438094D01*
X114253390Y-64438094D02*
X114205771Y-64342856D01*
X114205771Y-64342856D02*
X114205771Y-64104761D01*
X114205771Y-64104761D02*
X114253390Y-64009523D01*
X114253390Y-64009523D02*
X114301009Y-63961904D01*
X114301009Y-63961904D02*
X114396247Y-63914285D01*
X114396247Y-63914285D02*
X114634342Y-63914285D01*
X114634342Y-63914285D02*
X114729580Y-63961904D01*
X114729580Y-63961904D02*
X114777200Y-64009523D01*
X114777200Y-64009523D02*
X114824819Y-64104761D01*
X114824819Y-64104761D02*
X114824819Y-64342856D01*
X114824819Y-64342856D02*
X114777200Y-64438094D01*
X114777200Y-64438094D02*
X114729580Y-64485713D01*
X113050833Y-51289580D02*
X113003214Y-51337200D01*
X113003214Y-51337200D02*
X112860357Y-51384819D01*
X112860357Y-51384819D02*
X112765119Y-51384819D01*
X112765119Y-51384819D02*
X112622262Y-51337200D01*
X112622262Y-51337200D02*
X112527024Y-51241961D01*
X112527024Y-51241961D02*
X112479405Y-51146723D01*
X112479405Y-51146723D02*
X112431786Y-50956247D01*
X112431786Y-50956247D02*
X112431786Y-50813390D01*
X112431786Y-50813390D02*
X112479405Y-50622914D01*
X112479405Y-50622914D02*
X112527024Y-50527676D01*
X112527024Y-50527676D02*
X112622262Y-50432438D01*
X112622262Y-50432438D02*
X112765119Y-50384819D01*
X112765119Y-50384819D02*
X112860357Y-50384819D01*
X112860357Y-50384819D02*
X113003214Y-50432438D01*
X113003214Y-50432438D02*
X113050833Y-50480057D01*
X113384167Y-50384819D02*
X114003214Y-50384819D01*
X114003214Y-50384819D02*
X113669881Y-50765771D01*
X113669881Y-50765771D02*
X113812738Y-50765771D01*
X113812738Y-50765771D02*
X113907976Y-50813390D01*
X113907976Y-50813390D02*
X113955595Y-50861009D01*
X113955595Y-50861009D02*
X114003214Y-50956247D01*
X114003214Y-50956247D02*
X114003214Y-51194342D01*
X114003214Y-51194342D02*
X113955595Y-51289580D01*
X113955595Y-51289580D02*
X113907976Y-51337200D01*
X113907976Y-51337200D02*
X113812738Y-51384819D01*
X113812738Y-51384819D02*
X113527024Y-51384819D01*
X113527024Y-51384819D02*
X113431786Y-51337200D01*
X113431786Y-51337200D02*
X113384167Y-51289580D01*
X100559580Y-62066666D02*
X100607200Y-62114285D01*
X100607200Y-62114285D02*
X100654819Y-62257142D01*
X100654819Y-62257142D02*
X100654819Y-62352380D01*
X100654819Y-62352380D02*
X100607200Y-62495237D01*
X100607200Y-62495237D02*
X100511961Y-62590475D01*
X100511961Y-62590475D02*
X100416723Y-62638094D01*
X100416723Y-62638094D02*
X100226247Y-62685713D01*
X100226247Y-62685713D02*
X100083390Y-62685713D01*
X100083390Y-62685713D02*
X99892914Y-62638094D01*
X99892914Y-62638094D02*
X99797676Y-62590475D01*
X99797676Y-62590475D02*
X99702438Y-62495237D01*
X99702438Y-62495237D02*
X99654819Y-62352380D01*
X99654819Y-62352380D02*
X99654819Y-62257142D01*
X99654819Y-62257142D02*
X99702438Y-62114285D01*
X99702438Y-62114285D02*
X99750057Y-62066666D01*
X99654819Y-61733332D02*
X99654819Y-61066666D01*
X99654819Y-61066666D02*
X100654819Y-61495237D01*
X110734819Y-64941904D02*
X111544342Y-64941904D01*
X111544342Y-64941904D02*
X111639580Y-64894285D01*
X111639580Y-64894285D02*
X111687200Y-64846666D01*
X111687200Y-64846666D02*
X111734819Y-64751428D01*
X111734819Y-64751428D02*
X111734819Y-64560952D01*
X111734819Y-64560952D02*
X111687200Y-64465714D01*
X111687200Y-64465714D02*
X111639580Y-64418095D01*
X111639580Y-64418095D02*
X111544342Y-64370476D01*
X111544342Y-64370476D02*
X110734819Y-64370476D01*
X111734819Y-63370476D02*
X111734819Y-63941904D01*
X111734819Y-63656190D02*
X110734819Y-63656190D01*
X110734819Y-63656190D02*
X110877676Y-63751428D01*
X110877676Y-63751428D02*
X110972914Y-63846666D01*
X110972914Y-63846666D02*
X111020533Y-63941904D01*
X123703596Y-65406009D02*
X123370263Y-65406009D01*
X123370263Y-65929819D02*
X123370263Y-64929819D01*
X123370263Y-64929819D02*
X123846453Y-64929819D01*
X124703596Y-65929819D02*
X124227406Y-65929819D01*
X124227406Y-65929819D02*
X124227406Y-64929819D01*
X124989311Y-65025057D02*
X125036930Y-64977438D01*
X125036930Y-64977438D02*
X125132168Y-64929819D01*
X125132168Y-64929819D02*
X125370263Y-64929819D01*
X125370263Y-64929819D02*
X125465501Y-64977438D01*
X125465501Y-64977438D02*
X125513120Y-65025057D01*
X125513120Y-65025057D02*
X125560739Y-65120295D01*
X125560739Y-65120295D02*
X125560739Y-65215533D01*
X125560739Y-65215533D02*
X125513120Y-65358390D01*
X125513120Y-65358390D02*
X124941692Y-65929819D01*
X124941692Y-65929819D02*
X125560739Y-65929819D01*
X137566666Y-69254819D02*
X137566666Y-69969104D01*
X137566666Y-69969104D02*
X137519047Y-70111961D01*
X137519047Y-70111961D02*
X137423809Y-70207200D01*
X137423809Y-70207200D02*
X137280952Y-70254819D01*
X137280952Y-70254819D02*
X137185714Y-70254819D01*
X138519047Y-69254819D02*
X138042857Y-69254819D01*
X138042857Y-69254819D02*
X137995238Y-69731009D01*
X137995238Y-69731009D02*
X138042857Y-69683390D01*
X138042857Y-69683390D02*
X138138095Y-69635771D01*
X138138095Y-69635771D02*
X138376190Y-69635771D01*
X138376190Y-69635771D02*
X138471428Y-69683390D01*
X138471428Y-69683390D02*
X138519047Y-69731009D01*
X138519047Y-69731009D02*
X138566666Y-69826247D01*
X138566666Y-69826247D02*
X138566666Y-70064342D01*
X138566666Y-70064342D02*
X138519047Y-70159580D01*
X138519047Y-70159580D02*
X138471428Y-70207200D01*
X138471428Y-70207200D02*
X138376190Y-70254819D01*
X138376190Y-70254819D02*
X138138095Y-70254819D01*
X138138095Y-70254819D02*
X138042857Y-70207200D01*
X138042857Y-70207200D02*
X137995238Y-70159580D01*
X102554819Y-26633333D02*
X103269104Y-26633333D01*
X103269104Y-26633333D02*
X103411961Y-26680952D01*
X103411961Y-26680952D02*
X103507200Y-26776190D01*
X103507200Y-26776190D02*
X103554819Y-26919047D01*
X103554819Y-26919047D02*
X103554819Y-27014285D01*
X103554819Y-25633333D02*
X103554819Y-26204761D01*
X103554819Y-25919047D02*
X102554819Y-25919047D01*
X102554819Y-25919047D02*
X102697676Y-26014285D01*
X102697676Y-26014285D02*
X102792914Y-26109523D01*
X102792914Y-26109523D02*
X102840533Y-26204761D01*
X146791666Y-28409819D02*
X146791666Y-29124104D01*
X146791666Y-29124104D02*
X146744047Y-29266961D01*
X146744047Y-29266961D02*
X146648809Y-29362200D01*
X146648809Y-29362200D02*
X146505952Y-29409819D01*
X146505952Y-29409819D02*
X146410714Y-29409819D01*
X147410714Y-28838390D02*
X147315476Y-28790771D01*
X147315476Y-28790771D02*
X147267857Y-28743152D01*
X147267857Y-28743152D02*
X147220238Y-28647914D01*
X147220238Y-28647914D02*
X147220238Y-28600295D01*
X147220238Y-28600295D02*
X147267857Y-28505057D01*
X147267857Y-28505057D02*
X147315476Y-28457438D01*
X147315476Y-28457438D02*
X147410714Y-28409819D01*
X147410714Y-28409819D02*
X147601190Y-28409819D01*
X147601190Y-28409819D02*
X147696428Y-28457438D01*
X147696428Y-28457438D02*
X147744047Y-28505057D01*
X147744047Y-28505057D02*
X147791666Y-28600295D01*
X147791666Y-28600295D02*
X147791666Y-28647914D01*
X147791666Y-28647914D02*
X147744047Y-28743152D01*
X147744047Y-28743152D02*
X147696428Y-28790771D01*
X147696428Y-28790771D02*
X147601190Y-28838390D01*
X147601190Y-28838390D02*
X147410714Y-28838390D01*
X147410714Y-28838390D02*
X147315476Y-28886009D01*
X147315476Y-28886009D02*
X147267857Y-28933628D01*
X147267857Y-28933628D02*
X147220238Y-29028866D01*
X147220238Y-29028866D02*
X147220238Y-29219342D01*
X147220238Y-29219342D02*
X147267857Y-29314580D01*
X147267857Y-29314580D02*
X147315476Y-29362200D01*
X147315476Y-29362200D02*
X147410714Y-29409819D01*
X147410714Y-29409819D02*
X147601190Y-29409819D01*
X147601190Y-29409819D02*
X147696428Y-29362200D01*
X147696428Y-29362200D02*
X147744047Y-29314580D01*
X147744047Y-29314580D02*
X147791666Y-29219342D01*
X147791666Y-29219342D02*
X147791666Y-29028866D01*
X147791666Y-29028866D02*
X147744047Y-28933628D01*
X147744047Y-28933628D02*
X147696428Y-28886009D01*
X147696428Y-28886009D02*
X147601190Y-28838390D01*
X131754819Y-50976189D02*
X130754819Y-50976189D01*
X131659580Y-49928571D02*
X131707200Y-49976190D01*
X131707200Y-49976190D02*
X131754819Y-50119047D01*
X131754819Y-50119047D02*
X131754819Y-50214285D01*
X131754819Y-50214285D02*
X131707200Y-50357142D01*
X131707200Y-50357142D02*
X131611961Y-50452380D01*
X131611961Y-50452380D02*
X131516723Y-50499999D01*
X131516723Y-50499999D02*
X131326247Y-50547618D01*
X131326247Y-50547618D02*
X131183390Y-50547618D01*
X131183390Y-50547618D02*
X130992914Y-50499999D01*
X130992914Y-50499999D02*
X130897676Y-50452380D01*
X130897676Y-50452380D02*
X130802438Y-50357142D01*
X130802438Y-50357142D02*
X130754819Y-50214285D01*
X130754819Y-50214285D02*
X130754819Y-50119047D01*
X130754819Y-50119047D02*
X130802438Y-49976190D01*
X130802438Y-49976190D02*
X130850057Y-49928571D01*
X131754819Y-48976190D02*
X131754819Y-49547618D01*
X131754819Y-49261904D02*
X130754819Y-49261904D01*
X130754819Y-49261904D02*
X130897676Y-49357142D01*
X130897676Y-49357142D02*
X130992914Y-49452380D01*
X130992914Y-49452380D02*
X131040533Y-49547618D01*
X152966666Y-43754819D02*
X152966666Y-44469104D01*
X152966666Y-44469104D02*
X152919047Y-44611961D01*
X152919047Y-44611961D02*
X152823809Y-44707200D01*
X152823809Y-44707200D02*
X152680952Y-44754819D01*
X152680952Y-44754819D02*
X152585714Y-44754819D01*
X153871428Y-43754819D02*
X153680952Y-43754819D01*
X153680952Y-43754819D02*
X153585714Y-43802438D01*
X153585714Y-43802438D02*
X153538095Y-43850057D01*
X153538095Y-43850057D02*
X153442857Y-43992914D01*
X153442857Y-43992914D02*
X153395238Y-44183390D01*
X153395238Y-44183390D02*
X153395238Y-44564342D01*
X153395238Y-44564342D02*
X153442857Y-44659580D01*
X153442857Y-44659580D02*
X153490476Y-44707200D01*
X153490476Y-44707200D02*
X153585714Y-44754819D01*
X153585714Y-44754819D02*
X153776190Y-44754819D01*
X153776190Y-44754819D02*
X153871428Y-44707200D01*
X153871428Y-44707200D02*
X153919047Y-44659580D01*
X153919047Y-44659580D02*
X153966666Y-44564342D01*
X153966666Y-44564342D02*
X153966666Y-44326247D01*
X153966666Y-44326247D02*
X153919047Y-44231009D01*
X153919047Y-44231009D02*
X153871428Y-44183390D01*
X153871428Y-44183390D02*
X153776190Y-44135771D01*
X153776190Y-44135771D02*
X153585714Y-44135771D01*
X153585714Y-44135771D02*
X153490476Y-44183390D01*
X153490476Y-44183390D02*
X153442857Y-44231009D01*
X153442857Y-44231009D02*
X153395238Y-44326247D01*
X105770833Y-72189580D02*
X105723214Y-72237200D01*
X105723214Y-72237200D02*
X105580357Y-72284819D01*
X105580357Y-72284819D02*
X105485119Y-72284819D01*
X105485119Y-72284819D02*
X105342262Y-72237200D01*
X105342262Y-72237200D02*
X105247024Y-72141961D01*
X105247024Y-72141961D02*
X105199405Y-72046723D01*
X105199405Y-72046723D02*
X105151786Y-71856247D01*
X105151786Y-71856247D02*
X105151786Y-71713390D01*
X105151786Y-71713390D02*
X105199405Y-71522914D01*
X105199405Y-71522914D02*
X105247024Y-71427676D01*
X105247024Y-71427676D02*
X105342262Y-71332438D01*
X105342262Y-71332438D02*
X105485119Y-71284819D01*
X105485119Y-71284819D02*
X105580357Y-71284819D01*
X105580357Y-71284819D02*
X105723214Y-71332438D01*
X105723214Y-71332438D02*
X105770833Y-71380057D01*
X106342262Y-71713390D02*
X106247024Y-71665771D01*
X106247024Y-71665771D02*
X106199405Y-71618152D01*
X106199405Y-71618152D02*
X106151786Y-71522914D01*
X106151786Y-71522914D02*
X106151786Y-71475295D01*
X106151786Y-71475295D02*
X106199405Y-71380057D01*
X106199405Y-71380057D02*
X106247024Y-71332438D01*
X106247024Y-71332438D02*
X106342262Y-71284819D01*
X106342262Y-71284819D02*
X106532738Y-71284819D01*
X106532738Y-71284819D02*
X106627976Y-71332438D01*
X106627976Y-71332438D02*
X106675595Y-71380057D01*
X106675595Y-71380057D02*
X106723214Y-71475295D01*
X106723214Y-71475295D02*
X106723214Y-71522914D01*
X106723214Y-71522914D02*
X106675595Y-71618152D01*
X106675595Y-71618152D02*
X106627976Y-71665771D01*
X106627976Y-71665771D02*
X106532738Y-71713390D01*
X106532738Y-71713390D02*
X106342262Y-71713390D01*
X106342262Y-71713390D02*
X106247024Y-71761009D01*
X106247024Y-71761009D02*
X106199405Y-71808628D01*
X106199405Y-71808628D02*
X106151786Y-71903866D01*
X106151786Y-71903866D02*
X106151786Y-72094342D01*
X106151786Y-72094342D02*
X106199405Y-72189580D01*
X106199405Y-72189580D02*
X106247024Y-72237200D01*
X106247024Y-72237200D02*
X106342262Y-72284819D01*
X106342262Y-72284819D02*
X106532738Y-72284819D01*
X106532738Y-72284819D02*
X106627976Y-72237200D01*
X106627976Y-72237200D02*
X106675595Y-72189580D01*
X106675595Y-72189580D02*
X106723214Y-72094342D01*
X106723214Y-72094342D02*
X106723214Y-71903866D01*
X106723214Y-71903866D02*
X106675595Y-71808628D01*
X106675595Y-71808628D02*
X106627976Y-71761009D01*
X106627976Y-71761009D02*
X106532738Y-71713390D01*
X107854819Y-57483333D02*
X108569104Y-57483333D01*
X108569104Y-57483333D02*
X108711961Y-57530952D01*
X108711961Y-57530952D02*
X108807200Y-57626190D01*
X108807200Y-57626190D02*
X108854819Y-57769047D01*
X108854819Y-57769047D02*
X108854819Y-57864285D01*
X108854819Y-57007142D02*
X107854819Y-57007142D01*
X107854819Y-57007142D02*
X107854819Y-56626190D01*
X107854819Y-56626190D02*
X107902438Y-56530952D01*
X107902438Y-56530952D02*
X107950057Y-56483333D01*
X107950057Y-56483333D02*
X108045295Y-56435714D01*
X108045295Y-56435714D02*
X108188152Y-56435714D01*
X108188152Y-56435714D02*
X108283390Y-56483333D01*
X108283390Y-56483333D02*
X108331009Y-56530952D01*
X108331009Y-56530952D02*
X108378628Y-56626190D01*
X108378628Y-56626190D02*
X108378628Y-57007142D01*
X107950057Y-56054761D02*
X107902438Y-56007142D01*
X107902438Y-56007142D02*
X107854819Y-55911904D01*
X107854819Y-55911904D02*
X107854819Y-55673809D01*
X107854819Y-55673809D02*
X107902438Y-55578571D01*
X107902438Y-55578571D02*
X107950057Y-55530952D01*
X107950057Y-55530952D02*
X108045295Y-55483333D01*
X108045295Y-55483333D02*
X108140533Y-55483333D01*
X108140533Y-55483333D02*
X108283390Y-55530952D01*
X108283390Y-55530952D02*
X108854819Y-56102380D01*
X108854819Y-56102380D02*
X108854819Y-55483333D01*
X113070833Y-45459580D02*
X113023214Y-45507200D01*
X113023214Y-45507200D02*
X112880357Y-45554819D01*
X112880357Y-45554819D02*
X112785119Y-45554819D01*
X112785119Y-45554819D02*
X112642262Y-45507200D01*
X112642262Y-45507200D02*
X112547024Y-45411961D01*
X112547024Y-45411961D02*
X112499405Y-45316723D01*
X112499405Y-45316723D02*
X112451786Y-45126247D01*
X112451786Y-45126247D02*
X112451786Y-44983390D01*
X112451786Y-44983390D02*
X112499405Y-44792914D01*
X112499405Y-44792914D02*
X112547024Y-44697676D01*
X112547024Y-44697676D02*
X112642262Y-44602438D01*
X112642262Y-44602438D02*
X112785119Y-44554819D01*
X112785119Y-44554819D02*
X112880357Y-44554819D01*
X112880357Y-44554819D02*
X113023214Y-44602438D01*
X113023214Y-44602438D02*
X113070833Y-44650057D01*
X114023214Y-45554819D02*
X113451786Y-45554819D01*
X113737500Y-45554819D02*
X113737500Y-44554819D01*
X113737500Y-44554819D02*
X113642262Y-44697676D01*
X113642262Y-44697676D02*
X113547024Y-44792914D01*
X113547024Y-44792914D02*
X113451786Y-44840533D01*
X102384819Y-49066666D02*
X101908628Y-49399999D01*
X102384819Y-49638094D02*
X101384819Y-49638094D01*
X101384819Y-49638094D02*
X101384819Y-49257142D01*
X101384819Y-49257142D02*
X101432438Y-49161904D01*
X101432438Y-49161904D02*
X101480057Y-49114285D01*
X101480057Y-49114285D02*
X101575295Y-49066666D01*
X101575295Y-49066666D02*
X101718152Y-49066666D01*
X101718152Y-49066666D02*
X101813390Y-49114285D01*
X101813390Y-49114285D02*
X101861009Y-49161904D01*
X101861009Y-49161904D02*
X101908628Y-49257142D01*
X101908628Y-49257142D02*
X101908628Y-49638094D01*
X102384819Y-48114285D02*
X102384819Y-48685713D01*
X102384819Y-48399999D02*
X101384819Y-48399999D01*
X101384819Y-48399999D02*
X101527676Y-48495237D01*
X101527676Y-48495237D02*
X101622914Y-48590475D01*
X101622914Y-48590475D02*
X101670533Y-48685713D01*
X152306666Y-34144819D02*
X152306666Y-34859104D01*
X152306666Y-34859104D02*
X152259047Y-35001961D01*
X152259047Y-35001961D02*
X152163809Y-35097200D01*
X152163809Y-35097200D02*
X152020952Y-35144819D01*
X152020952Y-35144819D02*
X151925714Y-35144819D01*
X153211428Y-34478152D02*
X153211428Y-35144819D01*
X152973333Y-34097200D02*
X152735238Y-34811485D01*
X152735238Y-34811485D02*
X153354285Y-34811485D01*
X117829580Y-64866666D02*
X117877200Y-64914285D01*
X117877200Y-64914285D02*
X117924819Y-65057142D01*
X117924819Y-65057142D02*
X117924819Y-65152380D01*
X117924819Y-65152380D02*
X117877200Y-65295237D01*
X117877200Y-65295237D02*
X117781961Y-65390475D01*
X117781961Y-65390475D02*
X117686723Y-65438094D01*
X117686723Y-65438094D02*
X117496247Y-65485713D01*
X117496247Y-65485713D02*
X117353390Y-65485713D01*
X117353390Y-65485713D02*
X117162914Y-65438094D01*
X117162914Y-65438094D02*
X117067676Y-65390475D01*
X117067676Y-65390475D02*
X116972438Y-65295237D01*
X116972438Y-65295237D02*
X116924819Y-65152380D01*
X116924819Y-65152380D02*
X116924819Y-65057142D01*
X116924819Y-65057142D02*
X116972438Y-64914285D01*
X116972438Y-64914285D02*
X117020057Y-64866666D01*
X117258152Y-64009523D02*
X117924819Y-64009523D01*
X116877200Y-64247618D02*
X117591485Y-64485713D01*
X117591485Y-64485713D02*
X117591485Y-63866666D01*
X108384819Y-49066666D02*
X107908628Y-49399999D01*
X108384819Y-49638094D02*
X107384819Y-49638094D01*
X107384819Y-49638094D02*
X107384819Y-49257142D01*
X107384819Y-49257142D02*
X107432438Y-49161904D01*
X107432438Y-49161904D02*
X107480057Y-49114285D01*
X107480057Y-49114285D02*
X107575295Y-49066666D01*
X107575295Y-49066666D02*
X107718152Y-49066666D01*
X107718152Y-49066666D02*
X107813390Y-49114285D01*
X107813390Y-49114285D02*
X107861009Y-49161904D01*
X107861009Y-49161904D02*
X107908628Y-49257142D01*
X107908628Y-49257142D02*
X107908628Y-49638094D01*
X107480057Y-48685713D02*
X107432438Y-48638094D01*
X107432438Y-48638094D02*
X107384819Y-48542856D01*
X107384819Y-48542856D02*
X107384819Y-48304761D01*
X107384819Y-48304761D02*
X107432438Y-48209523D01*
X107432438Y-48209523D02*
X107480057Y-48161904D01*
X107480057Y-48161904D02*
X107575295Y-48114285D01*
X107575295Y-48114285D02*
X107670533Y-48114285D01*
X107670533Y-48114285D02*
X107813390Y-48161904D01*
X107813390Y-48161904D02*
X108384819Y-48733332D01*
X108384819Y-48733332D02*
X108384819Y-48114285D01*
D12*
X113403767Y-48890000D02*
X113111233Y-48890000D01*
X113403767Y-49910000D02*
X113111233Y-49910000D01*
D11*
X127524900Y-66500000D02*
X127524900Y-68000000D01*
X129774800Y-66500000D02*
X129774800Y-68000000D01*
D12*
X112190000Y-64846267D02*
X112190000Y-64553733D01*
X113210000Y-64846267D02*
X113210000Y-64553733D01*
X99500000Y-57200000D02*
X99500000Y-55800000D01*
X100200000Y-55100000D02*
X100800000Y-55100000D01*
X100800000Y-57900000D02*
X100200000Y-57900000D01*
X101500000Y-55800000D02*
X101500000Y-57200000D01*
X99500000Y-55800000D02*
G75*
G02*
X100200000Y-55100000I699999J1D01*
G01*
X100200000Y-57900000D02*
G75*
G02*
X99500000Y-57200000I0J700000D01*
G01*
X100800000Y-55100000D02*
G75*
G02*
X101500000Y-55800000I1J-699999D01*
G01*
X101500000Y-57200000D02*
G75*
G02*
X100800000Y-57900000I-700000J0D01*
G01*
D13*
X115700000Y-71175000D02*
X117285000Y-71175000D01*
X115700000Y-74025000D02*
X131300000Y-74025000D01*
X129715000Y-71175000D02*
X131300000Y-71175000D01*
D11*
X117800000Y-70000000D02*
G75*
G02*
X117600000Y-70000000I-100000J0D01*
G01*
X117600000Y-70000000D02*
G75*
G02*
X117800000Y-70000000I100000J0D01*
G01*
D12*
X100610000Y-74550000D02*
X101940000Y-74550000D01*
X100610000Y-75880000D02*
X100610000Y-74550000D01*
X103210000Y-74550000D02*
X113430000Y-74550000D01*
X103210000Y-77210000D02*
X103210000Y-74550000D01*
X103210000Y-77210000D02*
X113430000Y-77210000D01*
X113430000Y-77210000D02*
X113430000Y-74550000D01*
X136610000Y-50430000D02*
X137940000Y-50430000D01*
X136610000Y-51760000D02*
X136610000Y-50430000D01*
X136610000Y-53030000D02*
X136610000Y-65790000D01*
X136610000Y-53030000D02*
X139270000Y-53030000D01*
X136610000Y-65790000D02*
X139270000Y-65790000D01*
X139270000Y-53030000D02*
X139270000Y-65790000D01*
X115290000Y-64846267D02*
X115290000Y-64553733D01*
X116310000Y-64846267D02*
X116310000Y-64553733D01*
X113383767Y-51790000D02*
X113091233Y-51790000D01*
X113383767Y-52810000D02*
X113091233Y-52810000D01*
X101090000Y-61753733D02*
X101090000Y-62046267D01*
X102110000Y-61753733D02*
X102110000Y-62046267D01*
X103370000Y-62330000D02*
X103370000Y-66090000D01*
X103370000Y-66090000D02*
X104630000Y-66090000D01*
X110190000Y-62330000D02*
X110190000Y-66090000D01*
X110190000Y-66090000D02*
X108930000Y-66090000D01*
X110420000Y-61290000D02*
X110090000Y-61050000D01*
X110420000Y-60810000D01*
X110420000Y-61290000D01*
G36*
X110420000Y-61290000D02*
G01*
X110090000Y-61050000D01*
X110420000Y-60810000D01*
X110420000Y-61290000D01*
G37*
D11*
X124824900Y-66450000D02*
X124824900Y-67950000D01*
X127074800Y-66450000D02*
X127074800Y-67950000D01*
D12*
X139290000Y-68370000D02*
X139290000Y-71030000D01*
X152050000Y-68370000D02*
X139290000Y-68370000D01*
X152050000Y-68370000D02*
X152050000Y-71030000D01*
X152050000Y-71030000D02*
X139290000Y-71030000D01*
X153320000Y-68370000D02*
X154650000Y-68370000D01*
X154650000Y-68370000D02*
X154650000Y-69700000D01*
X145795000Y-29955000D02*
X147125000Y-29955000D01*
X145795000Y-31285000D02*
X145795000Y-29955000D01*
X145795000Y-32555000D02*
X145795000Y-45315000D01*
X145795000Y-32555000D02*
X148455000Y-32555000D01*
X145795000Y-45315000D02*
X148455000Y-45315000D01*
X148455000Y-32555000D02*
X148455000Y-45315000D01*
D13*
X116500000Y-47300000D02*
X116500000Y-52800000D01*
X116500000Y-52800000D02*
X130500000Y-52800000D01*
X130500000Y-47300000D02*
X116500000Y-47300000D01*
X130500000Y-52800000D02*
X130500000Y-47300000D01*
X130337500Y-47700000D02*
G75*
G02*
X129937500Y-47700000I-200000J0D01*
G01*
X129937500Y-47700000D02*
G75*
G02*
X130337500Y-47700000I200000J0D01*
G01*
D12*
X139290000Y-45470000D02*
X139290000Y-48130000D01*
X152050000Y-45470000D02*
X139290000Y-45470000D01*
X152050000Y-45470000D02*
X152050000Y-48130000D01*
X152050000Y-48130000D02*
X139290000Y-48130000D01*
X153320000Y-45470000D02*
X154650000Y-45470000D01*
X154650000Y-45470000D02*
X154650000Y-46800000D01*
X106083767Y-69890000D02*
X105791233Y-69890000D01*
X106083767Y-70910000D02*
X105791233Y-70910000D01*
X105500000Y-57350000D02*
X105500000Y-55950000D01*
X106200000Y-55250000D02*
X106800000Y-55250000D01*
X106800000Y-58050000D02*
X106200000Y-58050000D01*
X107500000Y-55950000D02*
X107500000Y-57350000D01*
X105500000Y-55950000D02*
G75*
G02*
X106200000Y-55250000I699999J1D01*
G01*
X106200000Y-58050000D02*
G75*
G02*
X105500000Y-57350000I0J700000D01*
G01*
X106800000Y-55250000D02*
G75*
G02*
X107500000Y-55950000I1J-699999D01*
G01*
X107500000Y-57350000D02*
G75*
G02*
X106800000Y-58050000I-700000J0D01*
G01*
X113403767Y-45960000D02*
X113111233Y-45960000D01*
X113403767Y-46980000D02*
X113111233Y-46980000D01*
X99977500Y-48645276D02*
X99977500Y-49154724D01*
X101022500Y-48645276D02*
X101022500Y-49154724D01*
X151010000Y-36150000D02*
X151010000Y-37200000D01*
X151010000Y-41320000D02*
X150020000Y-41320000D01*
X151010000Y-42370000D02*
X151010000Y-41320000D01*
X153510000Y-36150000D02*
X151010000Y-36150000D01*
X153510000Y-42370000D02*
X151010000Y-42370000D01*
X155480000Y-41200000D02*
X155480000Y-37320000D01*
X118390000Y-64846267D02*
X118390000Y-64553733D01*
X119410000Y-64846267D02*
X119410000Y-64553733D01*
X105977500Y-48645276D02*
X105977500Y-49154724D01*
X107022500Y-48645276D02*
X107022500Y-49154724D01*
%LPC*%
D14*
X114120000Y-49400000D03*
X112395000Y-49400000D03*
D15*
X112700000Y-65562500D03*
X112700000Y-63837500D03*
D16*
X152500000Y-26000000D03*
X152500000Y-75000000D03*
D17*
X100500000Y-55850000D03*
D18*
X100500000Y-57150000D03*
D19*
X117700000Y-71130000D03*
X118100000Y-71130000D03*
X118500000Y-71130000D03*
X118900000Y-71130000D03*
X119300000Y-71130000D03*
X119700000Y-71130000D03*
X120100000Y-71130000D03*
X120500000Y-71130000D03*
X120900000Y-71130000D03*
X121300000Y-71130000D03*
X121700000Y-71130000D03*
X122100000Y-71130000D03*
X122500000Y-71130000D03*
X122900000Y-71130000D03*
X123300000Y-71130000D03*
X123700000Y-71130000D03*
X124100000Y-71130000D03*
X124500000Y-71130000D03*
X124900000Y-71130000D03*
X125300000Y-71130000D03*
X125700000Y-71130000D03*
X126100000Y-71130000D03*
X126500000Y-71130000D03*
X126900000Y-71130000D03*
X127300000Y-71130000D03*
X127700000Y-71130000D03*
X128100000Y-71130000D03*
X128500000Y-71130000D03*
X128900000Y-71130000D03*
X129300000Y-71130000D03*
D20*
X115200000Y-72500000D03*
X131800000Y-72500000D03*
D21*
X101940000Y-75880000D03*
D22*
X104480000Y-75880000D03*
X107020000Y-75880000D03*
X109560000Y-75880000D03*
X112100000Y-75880000D03*
D21*
X137940000Y-51760000D03*
D22*
X137940000Y-54300000D03*
X137940000Y-56840000D03*
X137940000Y-59380000D03*
X137940000Y-61920000D03*
X137940000Y-64460000D03*
D15*
X115800000Y-65562500D03*
X115800000Y-63837500D03*
D14*
X114100000Y-52300000D03*
X112375000Y-52300000D03*
D23*
X101600000Y-61037500D03*
X101600000Y-62762500D03*
D24*
X109080000Y-61030000D03*
X106780000Y-61030000D03*
D25*
X106780000Y-67330000D03*
D24*
X104480000Y-61030000D03*
D21*
X153320000Y-69700000D03*
D22*
X150780000Y-69700000D03*
X148240000Y-69700000D03*
X145700000Y-69700000D03*
X143160000Y-69700000D03*
X140620000Y-69700000D03*
D26*
X99370000Y-27270000D03*
X101910000Y-27270000D03*
X104450000Y-27270000D03*
X106990000Y-27270000D03*
X109530000Y-27270000D03*
X112070000Y-27270000D03*
X114610000Y-27270000D03*
X117150000Y-27270000D03*
X119690000Y-27270000D03*
X122230000Y-27270000D03*
X124770000Y-27270000D03*
X127310000Y-27270000D03*
X129850000Y-27270000D03*
X132390000Y-27270000D03*
X134930000Y-27270000D03*
X137470000Y-27270000D03*
X140010000Y-27270000D03*
X142550000Y-27270000D03*
X145090000Y-27270000D03*
X147630000Y-27270000D03*
D27*
X100640000Y-26000000D03*
X146360000Y-26000000D03*
D26*
X99370000Y-24730000D03*
X101910000Y-24730000D03*
X104450000Y-24730000D03*
X106990000Y-24730000D03*
X109530000Y-24730000D03*
X112070000Y-24730000D03*
X114610000Y-24730000D03*
X117150000Y-24730000D03*
X119690000Y-24730000D03*
X122230000Y-24730000D03*
X124770000Y-24730000D03*
X127310000Y-24730000D03*
X129850000Y-24730000D03*
X132390000Y-24730000D03*
X134930000Y-24730000D03*
X137470000Y-24730000D03*
X140010000Y-24730000D03*
X142550000Y-24730000D03*
X145090000Y-24730000D03*
X147630000Y-24730000D03*
D21*
X147125000Y-31285000D03*
D22*
X147125000Y-33825000D03*
X147125000Y-36365000D03*
X147125000Y-38905000D03*
X147125000Y-41445000D03*
X147125000Y-43985000D03*
D28*
X130250000Y-46400000D03*
X129750000Y-46400000D03*
X129250000Y-46400000D03*
X128750000Y-46400000D03*
X128250000Y-46400000D03*
X127750000Y-46400000D03*
X127250000Y-46400000D03*
X126750000Y-46400000D03*
X126250000Y-46400000D03*
X125750000Y-46400000D03*
X125250000Y-46400000D03*
X124750000Y-46400000D03*
X124250000Y-46400000D03*
X123750000Y-46400000D03*
X123250000Y-46400000D03*
X122750000Y-46400000D03*
X122250000Y-46400000D03*
X121750000Y-46400000D03*
X121250000Y-46400000D03*
X120750000Y-46400000D03*
X120250000Y-46400000D03*
X119750000Y-46400000D03*
X119250000Y-46400000D03*
X118750000Y-46400000D03*
X118250000Y-46400000D03*
X117750000Y-46400000D03*
X117250000Y-46400000D03*
X116750000Y-46400000D03*
X116750000Y-53660000D03*
X117250000Y-53660000D03*
X117750000Y-53660000D03*
X118250000Y-53660000D03*
X118750000Y-53660000D03*
X119250000Y-53660000D03*
X119750000Y-53660000D03*
X120250000Y-53660000D03*
X120750000Y-53660000D03*
X121250000Y-53660000D03*
X121750000Y-53660000D03*
X122250000Y-53660000D03*
X122750000Y-53660000D03*
X123250000Y-53660000D03*
X123750000Y-53660000D03*
X124250000Y-53660000D03*
X124750000Y-53660000D03*
X125250000Y-53660000D03*
X125750000Y-53660000D03*
X126250000Y-53660000D03*
X126750000Y-53660000D03*
X127250000Y-53660000D03*
X127750000Y-53660000D03*
X128250000Y-53660000D03*
X128750000Y-53660000D03*
X129250000Y-53660000D03*
X129750000Y-53660000D03*
X130250000Y-53660000D03*
D21*
X153320000Y-46800000D03*
D22*
X150780000Y-46800000D03*
X148240000Y-46800000D03*
X145700000Y-46800000D03*
X143160000Y-46800000D03*
X140620000Y-46800000D03*
D14*
X106800000Y-70400000D03*
X105075000Y-70400000D03*
D17*
X106500000Y-56000000D03*
D18*
X106500000Y-57300000D03*
D14*
X114120000Y-46470000D03*
X112395000Y-46470000D03*
D29*
X100500000Y-47987500D03*
X100500000Y-49812500D03*
D16*
X94500000Y-26000000D03*
X94500000Y-75000000D03*
D30*
X150795000Y-40760000D03*
X150795000Y-39760000D03*
X150795000Y-38760000D03*
X150795000Y-37760000D03*
D31*
X154670000Y-42060000D03*
X154670000Y-36460000D03*
D15*
X118900000Y-65562500D03*
X118900000Y-63837500D03*
D29*
X106500000Y-47987500D03*
X106500000Y-49812500D03*
%LPD*%
M02*
